<?xml version="1.0" standalone="no"?>
<!DOCTYPE svg PUBLIC "-//W3C//DTD SVG 20010904//EN"
 "http://www.w3.org/TR/2001/REC-SVG-20010904/DTD/svg10.dtd">
<svg version="1.0" xmlns="http://www.w3.org/2000/svg"
 width="700.000000pt" height="700.000000pt" viewBox="0 0 700.000000 700.000000"
 preserveAspectRatio="xMidYMid meet">
<metadata>
Created by potrace 1.14, written by Peter Selinger 2001-2017
</metadata>
<g transform="translate(0.000000,700.000000) scale(0.100000,-0.100000)"
fill="#000000" stroke="none">
<path d="M1554 5951 c-46 -12 -132 -72 -138 -97 -7 -27 -2 -40 81 -223 53
-116 66 -153 66 -195 0 -59 -27 -126 -69 -170 -46 -48 -231 -122 -428 -172
-136 -34 -443 -120 -538 -150 -89 -29 -98 -43 -94 -147 1 -49 9 -79 33 -128
40 -80 84 -134 120 -146 28 -10 107 22 378 152 39 18 102 48 140 65 39 17 122
56 185 85 146 68 216 88 311 88 64 1 83 -3 121 -26 25 -15 56 -43 68 -64 12
-21 43 -113 68 -204 39 -144 49 -169 69 -178 68 -31 228 19 269 84 10 17 8 29
-19 85 -89 184 -110 239 -104 280 8 58 39 96 101 119 48 18 291 71 391 86 22
3 47 7 55 10 8 2 40 7 70 10 30 3 69 7 85 10 155 20 565 26 765 11 63 -5 131
-10 150 -11 68 -4 191 -21 295 -40 17 -3 46 -8 65 -11 98 -16 270 -55 391 -89
75 -21 143 -35 152 -32 9 3 20 28 26 59 34 160 155 246 330 235 42 -3 83 -7
91 -9 186 -51 319 -179 333 -318 5 -51 -13 -132 -42 -186 -11 -20 -18 -41 -15
-48 5 -12 81 -64 216 -145 99 -61 104 -60 162 16 58 78 119 127 216 174 131
65 242 113 430 190 123 50 215 92 215 100 0 7 -49 43 -110 81 -353 219 -729
392 -1134 522 -105 34 -384 110 -441 120 -14 2 -59 11 -100 19 -41 9 -93 18
-115 21 -22 4 -65 11 -95 16 -94 16 -123 19 -190 25 -36 4 -74 8 -85 10 -133
26 -865 27 -1000 1 -11 -2 -51 -7 -88 -11 -37 -3 -76 -8 -85 -10 -9 -1 -37 -6
-62 -10 -207 -32 -512 -97 -648 -140 -26 -7 -87 -26 -137 -41 -49 -15 -144
-45 -209 -66 -140 -46 -176 -45 -224 5 -30 31 -61 118 -77 217 -10 56 -34 135
-49 155 -15 20 -100 29 -152 16z"/>
<path d="M1580 4260 c-51 -10 -100 -33 -139 -65 -41 -35 -39 -56 14 -170 112
-241 119 -269 93 -356 -24 -82 -89 -134 -227 -186 -36 -13 -73 -27 -81 -30 -8
-3 -19 -7 -25 -8 -5 -2 -44 -12 -85 -24 -41 -12 -175 -48 -297 -81 -305 -82
-380 -107 -388 -128 -15 -37 -17 -124 -4 -170 17 -60 73 -155 111 -187 47 -40
43 -41 313 85 44 20 145 67 225 104 80 37 178 83 218 102 93 44 167 63 268 71
93 6 150 -12 201 -66 30 -31 72 -149 109 -306 20 -84 37 -104 90 -109 45 -3
156 30 198 60 43 31 41 50 -17 174 -75 158 -88 201 -77 240 13 46 36 77 68 94
24 12 200 57 277 71 17 2 41 7 55 10 53 12 240 38 370 52 98 11 617 10 745 0
234 -20 268 -24 440 -57 55 -11 116 -22 135 -25 62 -11 122 -25 245 -60 193
-55 184 -56 205 35 15 64 36 103 82 147 129 125 409 92 569 -67 97 -96 122
-209 73 -325 -38 -89 -39 -94 -18 -110 42 -31 260 -163 281 -170 18 -5 29 2
55 32 97 113 144 149 283 217 147 72 412 185 538 231 42 15 77 33 77 39 0 6
-19 23 -42 37 -24 14 -79 48 -123 75 -502 310 -1096 535 -1710 648 -129 24
-164 29 -350 52 -296 35 -746 37 -1050 4 -49 -6 -112 -13 -140 -15 -248 -27
-769 -149 -1078 -254 -117 -40 -149 -45 -191 -31 -53 17 -81 62 -106 170 -32
142 -58 226 -73 238 -17 15 -73 20 -117 12z"/>
<path d="M1579 2555 c-66 -13 -140 -54 -158 -89 -16 -29 -15 -32 57 -186 64
-138 90 -211 86 -245 -20 -182 -111 -236 -624 -370 -205 -54 -328 -88 -432
-121 -44 -14 -49 -19 -61 -61 -18 -62 -6 -141 34 -220 35 -68 85 -127 117
-135 20 -6 84 19 237 92 50 23 119 56 155 72 36 16 92 43 125 58 292 137 341
157 427 166 96 11 130 9 173 -14 78 -40 101 -85 165 -327 18 -67 36 -115 47
-123 41 -31 202 7 261 61 29 27 28 41 -12 123 -74 152 -100 220 -98 257 1 45
26 89 61 110 23 13 115 41 176 53 11 2 55 11 98 20 42 8 89 17 102 20 14 2 51
8 83 14 79 13 170 23 337 37 167 14 648 6 740 -12 11 -2 54 -7 95 -10 94 -8
114 -10 181 -24 30 -6 70 -13 89 -16 19 -3 42 -8 50 -10 8 -2 29 -7 45 -10
112 -19 152 -28 245 -56 117 -33 129 -37 182 -45 27 -5 39 -3 42 7 3 8 12 39
20 69 42 152 150 224 324 215 132 -6 241 -53 329 -140 106 -106 125 -224 58
-357 -14 -27 -25 -55 -25 -61 1 -17 279 -187 306 -187 14 0 34 15 56 42 58 75
72 89 121 125 80 59 382 199 637 295 144 55 145 55 95 85 -11 7 -74 45 -140
85 -162 99 -175 106 -370 202 -456 226 -1004 398 -1465 461 -25 3 -52 8 -60
10 -8 3 -40 7 -70 10 -30 3 -77 8 -105 11 -395 48 -894 34 -1335 -38 -36 -6
-75 -12 -87 -13 -12 -2 -34 -6 -50 -9 -15 -4 -39 -8 -53 -11 -14 -3 -36 -7
-50 -10 -14 -3 -35 -7 -46 -9 -39 -8 -328 -84 -374 -99 -386 -128 -403 -131
-459 -103 -43 23 -65 62 -86 154 -35 157 -57 231 -73 245 -25 21 -61 25 -123
12z"/>
</g>
</svg>
