<svg width="291" height="27" viewBox="0 0 291 27" fill="none" xmlns="http://www.w3.org/2000/svg">
<g clip-path="url(#clip0_627_3570)">
<path d="M9.86614 10.9126C9.10721 11.1346 8.58455 11.3637 7.95449 11.5141C7.7989 11.515 7.64677 11.4682 7.5187 11.3798C7.39064 11.2914 7.29282 11.1658 7.23852 11.02C7.0452 10.4544 7.00225 9.79572 6.78029 9.29454C6.42947 8.95803 5.19799 9.37329 5.19083 9.84584C5.34835 10.39 5.74929 11.0344 5.9784 11.6787C6.02852 11.8664 6.02852 12.0639 5.9784 12.2515C5.93619 12.4458 5.84959 12.6277 5.72538 12.783C5.60117 12.9382 5.44272 13.0626 5.26243 13.1465C4.57259 13.4574 3.85291 13.6973 3.11451 13.8624C2.1193 14.1202 1.18138 14.3779 0.207654 14.6858C0.174017 14.6972 0.143852 14.7169 0.120036 14.7433C0.0962202 14.7696 0.0795508 14.8016 0.0716195 14.8362C0.00145315 15.0608 -0.019519 15.298 0.0101315 15.5315C0.039782 15.765 0.119361 15.9894 0.243454 16.1894C0.415288 16.4972 0.715996 16.9698 1.03102 16.8624C2.2267 16.3397 3.33646 15.7526 4.55361 15.23C5.13028 14.9022 5.78847 14.7457 6.45095 14.7789C6.63634 14.7943 6.81449 14.8579 6.96772 14.9634C7.12094 15.0689 7.24392 15.2126 7.32444 15.3803C7.5306 15.9762 7.70271 16.5834 7.83993 17.1989C8.05473 17.65 9.52247 17.1345 9.4652 16.7407C9.4652 16.7407 8.88526 15.5378 8.74922 15.144C8.71166 14.9586 8.74338 14.7659 8.83838 14.6022C8.93338 14.4386 9.08507 14.3155 9.26472 14.2562C11.7697 13.5885 14.3745 13.3775 16.9543 13.6333C17.4699 13.6578 17.9838 13.7104 18.4936 13.7909L20.0759 14.0916C20.7919 14.2204 21.2859 14.4424 22.0019 14.5927C22.1666 14.6429 22.2024 14.4925 22.2167 14.4281V14.3493C22.632 11.6143 27.5006 13.4257 25.9541 15.8385V15.9173C25.9389 15.9353 25.9306 15.9582 25.9306 15.9817C25.9306 16.0053 25.9389 16.0281 25.9541 16.0462C26.4409 16.3755 26.9135 16.6619 27.4791 17.0056H27.6366C27.8872 16.8409 27.9731 16.5688 28.1808 16.3755C28.4065 16.1641 28.6593 15.9835 28.9325 15.8385C30.1212 15.2444 31.3427 14.7185 32.5912 14.2634V14.1775C29.2958 11.9794 25.551 10.5455 21.6303 9.98065C17.7097 9.41578 13.7124 9.7342 9.93058 10.9126H9.86614Z" fill="white"/>
<path d="M9.93782 1.86984C9.17889 2.09179 8.65623 2.32091 8.02617 2.47126C7.86914 2.47894 7.71395 2.43473 7.58455 2.34545C7.45516 2.25616 7.35874 2.12677 7.3102 1.97724C7.11688 1.41162 7.06676 0.752924 6.84481 0.251742C6.49398 -0.091925 5.25535 0.33766 5.25535 0.803043C5.41287 1.34718 5.81381 1.99156 6.04292 2.63593C6.09642 2.82068 6.09642 3.01681 6.04292 3.20155C6.00338 3.39693 5.91779 3.58005 5.79326 3.7357C5.66874 3.89136 5.50888 4.01505 5.32695 4.09652C4.63795 4.40955 3.91804 4.64952 3.17903 4.8125C2.18382 5.07741 1.23874 5.33516 0.272171 5.63587C0.23754 5.64678 0.206241 5.6663 0.1812 5.69259C0.156158 5.71888 0.13819 5.7511 0.128976 5.78622C0.0593849 6.01133 0.0393514 6.24884 0.0702491 6.48242C0.101147 6.71601 0.182243 6.94014 0.307969 7.13941C0.472643 7.44728 0.773352 7.91982 1.08838 7.81242C2.29122 7.28976 3.40098 6.70983 4.61813 6.19432C5.17032 5.85332 5.80934 5.67927 6.45818 5.69314C6.64464 5.70802 6.82397 5.77134 6.97843 5.87682C7.13289 5.98231 7.25713 6.12631 7.33883 6.29456C7.56795 6.89598 7.84001 8.09882 7.85433 8.11313C8.06913 8.5642 9.52971 8.0487 9.4796 7.64775C9.4796 7.64775 8.8925 6.45208 8.76362 6.05829C8.73167 5.87034 8.77028 5.67722 8.87203 5.516C8.97379 5.35478 9.13151 5.23683 9.31492 5.1848C11.8224 4.51718 14.4295 4.30619 17.0116 4.56191C17.5253 4.58527 18.037 4.64027 18.5438 4.72658L20.1261 5.01297C20.8421 5.149 21.3361 5.3638 22.0593 5.52131C22.2168 5.57143 22.2526 5.42107 22.2669 5.35664V5.27788C22.6822 2.54286 27.5508 4.35427 26.0043 6.75994V6.84586C25.9891 6.86391 25.9808 6.88673 25.9808 6.9103C25.9808 6.93387 25.9891 6.95668 26.0043 6.97474C26.484 7.30408 26.9637 7.58331 27.5221 7.93414H27.6868C27.9374 7.76947 28.0233 7.50456 28.2309 7.31124C28.4449 7.10143 28.6856 6.92087 28.9469 6.77426C30.1355 6.18204 31.357 5.65851 32.6055 5.20628V5.10604C29.3196 2.92344 25.5894 1.49885 21.685 0.935425C17.7807 0.372 13.7999 0.683839 10.0309 1.84836L9.93782 1.86984Z" fill="white"/>
<path d="M9.82329 19.9983C9.06436 20.2203 8.54886 20.4494 7.91164 20.5997C7.75462 20.6074 7.59943 20.5632 7.47003 20.4739C7.34063 20.3846 7.24422 20.2552 7.19567 20.1057C6.99519 19.5401 6.95224 18.8814 6.73744 18.3802C6.37946 18.0365 5.14798 18.459 5.14082 18.9315C5.30549 19.4685 5.70644 20.12 5.92839 20.7644C5.98568 20.9486 5.98568 21.1458 5.92839 21.33C5.88771 21.5258 5.80177 21.7094 5.67745 21.866C5.55313 22.0227 5.39387 22.1481 5.21242 22.2322C4.53241 22.5366 3.82524 22.7763 3.1003 22.9481C2.10509 23.1987 1.16717 23.4565 0.193441 23.7643C0.159419 23.7764 0.128718 23.7962 0.103835 23.8224C0.0789514 23.8485 0.0605914 23.8801 0.0502482 23.9147C-0.0174705 24.1401 -0.0365343 24.3772 -0.00567631 24.6105C0.0251817 24.8438 0.105257 25.0679 0.229242 25.2679C0.401075 25.5829 0.694625 26.0483 1.00965 25.9409C2.21249 25.4254 3.32225 24.8311 4.5394 24.3156C5.09649 23.9799 5.73623 23.8063 6.38662 23.8145C6.57194 23.8333 6.74942 23.899 6.90226 24.0055C7.0551 24.112 7.17826 24.2557 7.2601 24.423C7.46371 25.0198 7.63578 25.6268 7.7756 26.2416C7.98324 26.6927 9.45814 26.1772 9.40086 25.7762C9.40086 25.7762 8.82093 24.5877 8.68489 24.1868C8.64227 24.001 8.6718 23.806 8.7675 23.6412C8.8632 23.4763 9.01793 23.354 9.20039 23.299C11.7055 22.6322 14.3097 22.4189 16.89 22.6689C17.4055 22.7119 17.8995 22.7405 18.4293 22.8336L20.0044 23.1343C20.7204 23.2632 21.2144 23.4851 21.9376 23.6355C22.1022 23.6784 22.1309 23.5352 22.1452 23.4708V23.392C22.5605 20.657 27.4291 22.4613 25.8826 24.8813L25.8468 24.96C25.8316 24.9781 25.8233 25.0009 25.8233 25.0245C25.8233 25.048 25.8316 25.0708 25.8468 25.0889C26.3265 25.4254 26.8062 25.6975 27.3718 26.0483H27.5293C27.7799 25.8836 27.8658 25.6116 28.0735 25.4182C28.2864 25.2073 28.5273 25.0266 28.7894 24.8813C29.9775 24.2859 31.1991 23.76 32.4481 23.3061V23.213C29.1626 21.0352 25.434 19.6151 21.5322 19.0554C17.6304 18.4957 13.6529 18.8104 9.88773 19.9768L9.82329 19.9983Z" fill="white"/>
<path d="M41.856 7.02478H51.7078V8.72164H43.7318V12.5736H51.1135V14.2776H43.7318V18.6092H51.8223V20.3061H41.856V7.02478Z" fill="white"/>
<path d="M57.6433 14.6428C60.0562 15.1941 60.7292 16.0031 60.7292 17.3706C60.7292 19.1391 59.2972 20.5997 56.7484 20.5997C53.6339 20.5997 52.6602 18.9601 52.6602 17.1487H54.3499C54.3499 18.0723 54.7222 19.089 56.9703 19.089C58.2448 19.089 59.0108 18.5019 59.0108 17.657C59.0108 17.0341 58.6171 16.6404 57.4572 16.3683L55.5455 15.9244C54.1136 15.6093 52.9609 15.0366 52.9609 13.3397C52.9609 11.6429 54.2138 10.4114 56.7054 10.4114C59.419 10.4114 60.4714 12.051 60.4714 13.5044H58.7817C58.6958 12.7884 58.3163 11.9221 56.6338 11.9221C55.3952 11.9221 54.7222 12.545 54.7222 13.2323C54.7222 13.9197 55.3952 14.1702 56.3689 14.3779L57.6433 14.6428Z" fill="white"/>
<path d="M66.2923 14.6428C68.7051 15.1941 69.3853 16.0031 69.3853 17.3706C69.3853 19.1391 67.9533 20.5997 65.3901 20.5997C62.2828 20.5997 61.3091 18.9601 61.3091 17.1487H63.0131C63.0489 18.0723 63.3854 19.089 65.6336 19.089C66.908 19.089 67.6741 18.5019 67.6741 17.657C67.6741 17.0341 67.2803 16.6404 66.1204 16.3683L64.1945 15.9244C62.7625 15.6093 61.6098 15.0366 61.6098 13.3397C61.6098 11.6429 62.8699 10.4114 65.3543 10.4114C68.075 10.4114 69.1204 12.051 69.1204 13.5044H67.4378C67.3447 12.7884 66.9653 11.9221 65.2469 11.9221C64.0083 11.9221 63.3353 12.545 63.3353 13.2323C63.3353 13.9197 64.0083 14.1702 64.982 14.3779L66.2923 14.6428Z" fill="white"/>
<path d="M79.029 17.113C78.8968 18.1195 78.3884 19.0387 77.606 19.6855C76.8237 20.3324 75.8253 20.6591 74.8119 20.5998C71.8692 20.5998 70.2798 18.6666 70.2798 15.4877C70.2798 12.3088 71.8692 10.3828 74.8119 10.3828C77.4896 10.3828 79.1579 12.1155 79.1579 14.9937C79.1579 15.323 79.1579 15.6595 79.1221 15.9531H72.0769C72.1342 18.2012 73.3513 19.0891 74.8119 19.0891C75.3956 19.1014 75.9655 18.9114 76.425 18.5511C76.8844 18.1909 77.2049 17.6827 77.3321 17.113H79.029ZM77.3966 14.5498C77.4052 14.2046 77.3447 13.8613 77.2187 13.5398C77.0928 13.2183 76.9039 12.9253 76.6631 12.6778C76.4223 12.4304 76.1345 12.2336 75.8167 12.0989C75.4988 11.9642 75.1572 11.8944 74.8119 11.8935C73.2582 11.8935 72.3203 12.6453 72.0769 14.5498H77.3966Z" fill="white"/>
<path d="M82.1725 15.3659L78.9148 10.6763H81.0484L83.2393 14.0342L85.4302 10.6763H87.5638L84.3061 15.3659L87.8072 20.3061H85.6736L83.2393 16.6189L80.805 20.3061H78.6714L82.1725 15.3659Z" fill="white"/>
<path d="M103.236 15.323C102.971 17.4279 101.697 20.5997 97.5083 20.5997C93.7781 20.5997 91.3438 17.9649 91.3438 13.6619C91.3438 9.3589 93.7781 6.72412 97.5083 6.72412C102.062 6.72412 103.143 9.83861 103.236 11.2276H101.36C101.194 10.393 100.726 9.6489 100.046 9.13769C99.3657 8.62648 98.5208 8.38405 97.673 8.45678C94.9379 8.45678 93.3127 10.4543 93.3127 13.6619C93.3127 16.8695 94.9379 18.867 97.673 18.867C100.408 18.867 101.102 16.7191 101.36 15.2872L103.236 15.323Z" fill="white"/>
<path d="M108.477 19.089C110.088 19.089 111.212 18.058 111.212 15.5091C111.212 12.9603 110.088 11.9293 108.477 11.9293C106.866 11.9293 105.742 12.9603 105.742 15.5091C105.742 18.058 106.866 19.089 108.477 19.089ZM103.945 15.5091C103.945 12.3374 105.534 10.3971 108.477 10.3971C111.42 10.3971 113.009 12.3374 113.009 15.5091C113.009 18.6809 111.412 20.6212 108.477 20.6212C105.541 20.6212 103.945 18.6881 103.945 15.5091Z" fill="white"/>
<path d="M120.556 19.1033C120.123 19.5778 119.595 19.9562 119.007 20.2139C118.419 20.4717 117.783 20.6031 117.14 20.5997C115.343 20.5997 114.219 19.6045 114.219 17.0986V10.6548H115.945V17.0986C115.91 17.3493 115.933 17.6046 116.011 17.8454C116.089 18.0862 116.22 18.3063 116.395 18.4893C116.57 18.6724 116.783 18.8136 117.02 18.9026C117.257 18.9915 117.511 19.0259 117.763 19.003C118.112 19.0309 118.462 18.9859 118.792 18.8708C119.122 18.7557 119.424 18.5731 119.679 18.3345C119.935 18.096 120.138 17.8069 120.275 17.4856C120.412 17.1643 120.481 16.8179 120.477 16.4685V10.6763H122.195V20.3061H120.556V19.1033Z" fill="white"/>
<path d="M123.942 10.6763H125.589V11.8719C126.021 11.3982 126.547 11.0207 127.134 10.7641C127.722 10.5076 128.356 10.3776 128.997 10.3827C130.68 10.3827 131.918 11.3779 131.918 13.8838V20.3276H130.193V13.8838C130.218 13.6355 130.189 13.3847 130.108 13.1485C130.027 12.9124 129.896 12.6965 129.724 12.5157C129.552 12.3348 129.343 12.1933 129.112 12.1007C128.88 12.0081 128.631 11.9667 128.381 11.9793C128.035 11.9549 127.688 12.0016 127.36 12.1165C127.033 12.2314 126.733 12.4122 126.478 12.6476C126.223 12.8831 126.019 13.1682 125.878 13.4855C125.738 13.8028 125.664 14.1454 125.661 14.4924V20.3061H123.942V10.6763Z" fill="white"/>
<path d="M137.159 20.4351C136.88 20.4351 136.443 20.4351 136.021 20.4351C134.274 20.4351 133.787 19.8623 133.787 17.9793V12.0367H132.498V10.6763H133.787V8.09167H135.512V10.6763H137.123V12.0725H135.512V17.8003C135.512 18.7454 135.813 18.9673 136.45 18.9673C136.651 18.9673 136.994 18.9673 137.166 18.9673L137.159 20.4351Z" fill="white"/>
<path d="M142.908 21.3586C141.949 23.9791 141.126 24.2225 140.045 24.2225C139.635 24.2114 139.228 24.1635 138.827 24.0793V22.5185C139.162 22.618 139.509 22.6687 139.858 22.6688C140.796 22.6688 141.111 21.5949 141.505 20.5209L137.904 10.6763H139.78L142.4 18.2942H142.436L144.999 10.6763H146.839L142.908 21.3586Z" fill="white"/>
<path d="M162.483 15.323C162.225 17.4279 160.951 20.5997 156.755 20.5997C153.025 20.5997 150.583 17.9649 150.583 13.6619C150.583 9.3589 153.025 6.72412 156.755 6.72412C161.309 6.72412 162.397 9.83861 162.483 11.2276H160.607C160.441 10.393 159.973 9.6489 159.293 9.13769C158.613 8.62648 157.768 8.38405 156.92 8.45678C154.185 8.45678 152.552 10.4543 152.552 13.6619C152.536 14.5279 152.679 15.3895 152.975 16.2036C153.258 17.0133 153.795 17.71 154.505 18.1899C155.216 18.6698 156.063 18.9073 156.92 18.867C159.562 18.867 160.349 16.7191 160.607 15.2872L162.483 15.323Z" fill="white"/>
<path d="M167.745 19.089C169.356 19.089 170.481 18.058 170.481 15.5091C170.481 12.9603 169.356 11.9293 167.745 11.9293C166.135 11.9293 165.01 12.9603 165.01 15.5091C165.01 18.058 166.135 19.089 167.745 19.089ZM163.213 15.5091C163.213 12.3374 164.803 10.3971 167.745 10.3971C170.688 10.3971 172.278 12.3374 172.278 15.5091C172.278 18.6809 170.688 20.6212 167.745 20.6212C164.803 20.6212 163.249 18.6666 163.249 15.4877" fill="white"/>
<path d="M179.652 19.1033C179.221 19.5787 178.695 19.9577 178.108 20.2156C177.521 20.4735 176.885 20.6043 176.244 20.5997C174.447 20.5997 173.323 19.6045 173.323 17.0986V10.6548H175.048V17.0986C175.012 17.3491 175.032 17.6046 175.108 17.8461C175.185 18.0875 175.314 18.3087 175.488 18.4932C175.661 18.6776 175.874 18.8205 176.11 18.9113C176.346 19.0021 176.6 19.0383 176.852 19.0174C177.201 19.0453 177.551 19.0002 177.881 18.8851C178.211 18.77 178.513 18.5874 178.769 18.3489C179.024 18.1104 179.227 17.8212 179.364 17.4999C179.501 17.1786 179.57 16.8322 179.566 16.4828V10.6763H181.292V20.3061H179.638L179.652 19.1033Z" fill="white"/>
<path d="M182.781 10.6763H184.427V11.8719C184.859 11.3982 185.386 11.0207 185.973 10.7641C186.56 10.5076 187.195 10.3776 187.836 10.3827C189.518 10.3827 190.757 11.3779 190.757 13.8838V20.3276H189.024V13.8838C189.049 13.6349 189.02 13.3834 188.939 13.1467C188.858 12.9101 188.726 12.6938 188.553 12.5128C188.381 12.3318 188.171 12.1904 187.938 12.0984C187.705 12.0063 187.455 11.9657 187.205 11.9793C186.861 11.9569 186.515 12.0051 186.19 12.121C185.865 12.237 185.566 12.4182 185.314 12.6535C185.061 12.8888 184.859 13.1734 184.72 13.4896C184.581 13.8058 184.508 14.1471 184.506 14.4924V20.3061H182.781V10.6763Z" fill="white"/>
<path d="M200.158 16.8337C200.151 17.3439 200.041 17.8474 199.836 18.3147C199.632 18.7819 199.335 19.2035 198.965 19.5544C198.595 19.9054 198.158 20.1787 197.68 20.3582C197.203 20.5378 196.694 20.6199 196.184 20.5998C193.249 20.5998 191.659 18.6666 191.659 15.4877C191.659 12.3088 193.249 10.3828 196.184 10.3828C199.12 10.3828 200.101 12.4448 200.101 13.9627H198.418C198.415 13.6778 198.353 13.3965 198.238 13.1361C198.122 12.8757 197.955 12.6415 197.746 12.4479C197.537 12.2543 197.291 12.1053 197.022 12.0099C196.754 11.9146 196.468 11.875 196.184 11.8935C194.573 11.8935 193.456 12.9245 193.456 15.4734C193.456 18.0223 194.573 19.0533 196.184 19.0533C197.795 19.0533 198.332 17.5211 198.475 16.7979L200.158 16.8337Z" fill="white"/>
<path d="M201.031 7.0177H202.757V8.90071H201.031V7.0177ZM201.031 10.6763H202.757V20.3062H201.031V10.6763Z" fill="white"/>
<path d="M206 7.02478H204.274V20.3061H206V7.02478Z" fill="white"/>
</g>
<path d="M220.212 20.3062V10.7842H222.768V20.3062H220.212ZM221.472 8.82215C220.98 8.82215 220.596 8.70215 220.32 8.46215C220.044 8.22215 219.906 7.88015 219.906 7.43615C219.906 7.02815 220.044 6.69815 220.32 6.44615C220.608 6.18215 220.992 6.05015 221.472 6.05015C221.964 6.05015 222.348 6.17615 222.624 6.42815C222.9 6.66815 223.038 7.00415 223.038 7.43615C223.038 7.85615 222.894 8.19215 222.606 8.44415C222.33 8.69615 221.952 8.82215 221.472 8.82215ZM225.498 20.3062V10.7842H227.946L228.018 12.7282L227.514 12.9442C227.646 12.5122 227.88 12.1222 228.216 11.7742C228.564 11.4142 228.978 11.1262 229.458 10.9102C229.938 10.6942 230.442 10.5862 230.97 10.5862C231.69 10.5862 232.29 10.7302 232.77 11.0182C233.262 11.3062 233.628 11.7442 233.868 12.3322C234.12 12.9082 234.246 13.6222 234.246 14.4742V20.3062H231.69V14.6722C231.69 14.2402 231.63 13.8802 231.51 13.5922C231.39 13.3042 231.204 13.0942 230.952 12.9622C230.712 12.8182 230.412 12.7582 230.052 12.7822C229.764 12.7822 229.494 12.8302 229.242 12.9262C229.002 13.0102 228.792 13.1362 228.612 13.3042C228.444 13.4722 228.306 13.6642 228.198 13.8802C228.102 14.0962 228.054 14.3302 228.054 14.5822V20.3062H226.794C226.518 20.3062 226.272 20.3062 226.056 20.3062C225.84 20.3062 225.654 20.3062 225.498 20.3062ZM237.613 20.3062V8.37215H240.169V20.3062H237.613ZM235.831 13.0702V10.7842H242.113V13.0702H235.831ZM243.779 20.3062V10.7842H246.245L246.335 13.8442L245.903 13.2142C246.047 12.7222 246.281 12.2782 246.605 11.8822C246.929 11.4742 247.307 11.1562 247.739 10.9282C248.183 10.7002 248.645 10.5862 249.125 10.5862C249.329 10.5862 249.527 10.6042 249.719 10.6402C249.911 10.6762 250.073 10.7182 250.205 10.7662L249.521 13.5742C249.377 13.5022 249.203 13.4422 248.999 13.3942C248.795 13.3342 248.585 13.3042 248.369 13.3042C248.081 13.3042 247.811 13.3582 247.559 13.4662C247.319 13.5622 247.109 13.7062 246.929 13.8982C246.749 14.0782 246.605 14.2942 246.497 14.5462C246.401 14.7982 246.353 15.0742 246.353 15.3742V20.3062H243.779ZM254.831 20.4862C254.039 20.4862 253.325 20.2702 252.689 19.8382C252.053 19.4062 251.549 18.8182 251.177 18.0742C250.805 17.3302 250.619 16.4782 250.619 15.5182C250.619 14.5582 250.805 13.7122 251.177 12.9802C251.561 12.2362 252.077 11.6542 252.725 11.2342C253.373 10.8022 254.111 10.5862 254.939 10.5862C255.407 10.5862 255.833 10.6582 256.217 10.8022C256.613 10.9342 256.955 11.1202 257.243 11.3602C257.543 11.6002 257.795 11.8762 257.999 12.1882C258.203 12.5002 258.347 12.8362 258.431 13.1962L257.891 13.1062V10.7842H260.429V20.3062H257.855V18.0202L258.431 17.9662C258.335 18.3022 258.179 18.6202 257.963 18.9202C257.747 19.2202 257.477 19.4902 257.153 19.7302C256.841 19.9582 256.487 20.1442 256.091 20.2882C255.695 20.4202 255.275 20.4862 254.831 20.4862ZM255.533 18.2722C256.013 18.2722 256.433 18.1582 256.793 17.9302C257.153 17.7022 257.429 17.3842 257.621 16.9762C257.825 16.5562 257.927 16.0702 257.927 15.5182C257.927 14.9782 257.825 14.5042 257.621 14.0962C257.429 13.6882 257.153 13.3702 256.793 13.1422C256.433 12.9022 256.013 12.7822 255.533 12.7822C255.065 12.7822 254.651 12.9022 254.291 13.1422C253.943 13.3702 253.667 13.6882 253.463 14.0962C253.259 14.5042 253.157 14.9782 253.157 15.5182C253.157 16.0702 253.259 16.5562 253.463 16.9762C253.667 17.3842 253.943 17.7022 254.291 17.9302C254.651 18.1582 255.065 18.2722 255.533 18.2722ZM262.992 20.3062V10.7842H265.44L265.512 12.7282L265.008 12.9442C265.14 12.5122 265.374 12.1222 265.71 11.7742C266.058 11.4142 266.472 11.1262 266.952 10.9102C267.432 10.6942 267.936 10.5862 268.464 10.5862C269.184 10.5862 269.784 10.7302 270.264 11.0182C270.756 11.3062 271.122 11.7442 271.362 12.3322C271.614 12.9082 271.74 13.6222 271.74 14.4742V20.3062H269.184V14.6722C269.184 14.2402 269.124 13.8802 269.004 13.5922C268.884 13.3042 268.698 13.0942 268.446 12.9622C268.206 12.8182 267.906 12.7582 267.546 12.7822C267.258 12.7822 266.988 12.8302 266.736 12.9262C266.496 13.0102 266.286 13.1362 266.106 13.3042C265.938 13.4722 265.8 13.6642 265.692 13.8802C265.596 14.0962 265.548 14.3302 265.548 14.5822V20.3062H264.288C264.012 20.3062 263.766 20.3062 263.55 20.3062C263.334 20.3062 263.148 20.3062 262.992 20.3062ZM278.707 20.4862C277.675 20.4862 276.775 20.2762 276.007 19.8562C275.239 19.4362 274.639 18.8602 274.207 18.1282C273.775 17.3962 273.559 16.5562 273.559 15.6082C273.559 14.8762 273.679 14.2042 273.919 13.5922C274.159 12.9802 274.495 12.4522 274.927 12.0082C275.359 11.5522 275.869 11.2042 276.457 10.9642C277.057 10.7122 277.705 10.5862 278.401 10.5862C279.049 10.5862 279.649 10.7062 280.201 10.9462C280.753 11.1742 281.227 11.5042 281.623 11.9362C282.031 12.3562 282.343 12.8542 282.559 13.4302C282.775 14.0062 282.871 14.6362 282.847 15.3202L282.829 16.1122H275.179L274.765 14.5462H280.723L280.435 14.8702V14.4742C280.411 14.1502 280.303 13.8562 280.111 13.5922C279.931 13.3282 279.697 13.1242 279.409 12.9802C279.121 12.8362 278.797 12.7642 278.437 12.7642C277.909 12.7642 277.459 12.8662 277.087 13.0702C276.727 13.2742 276.451 13.5742 276.259 13.9702C276.067 14.3662 275.971 14.8462 275.971 15.4102C275.971 15.9862 276.091 16.4842 276.331 16.9042C276.583 17.3242 276.931 17.6542 277.375 17.8942C277.831 18.1222 278.365 18.2362 278.977 18.2362C279.397 18.2362 279.781 18.1702 280.129 18.0382C280.477 17.9062 280.849 17.6782 281.245 17.3542L282.469 19.0642C282.121 19.3762 281.737 19.6402 281.317 19.8562C280.897 20.0602 280.465 20.2162 280.021 20.3242C279.577 20.4322 279.139 20.4862 278.707 20.4862ZM285.654 20.3062V8.37215H288.21V20.3062H285.654ZM283.872 13.0702V10.7842H290.154V13.0702H283.872Z" fill="black"/>
<defs>
<clipPath id="clip0_627_3570">
<rect width="206" height="26.3049" fill="white" transform="translate(0 0.130005)"/>
</clipPath>
</defs>
</svg>
