<svg width="289" height="37" viewBox="0 0 289 37" fill="none" xmlns="http://www.w3.org/2000/svg">
<g clip-path="url(#clip0_185_481)">
<path d="M14.4567 15.06C13.3967 15.37 12.6667 15.69 11.7867 15.9C11.5694 15.9014 11.3569 15.8359 11.1781 15.7125C10.9992 15.5891 10.8626 15.4137 10.7867 15.21C10.5167 14.42 10.4567 13.5 10.1467 12.8C9.65673 12.33 7.93673 12.91 7.92673 13.57C8.14673 14.33 8.70673 15.23 9.02673 16.13C9.09673 16.3921 9.09673 16.6679 9.02673 16.93C8.96777 17.2014 8.84682 17.4554 8.67333 17.6723C8.49985 17.8892 8.27854 18.0629 8.02673 18.18C7.06323 18.6142 6.05806 18.9493 5.02673 19.18C3.63673 19.54 2.32673 19.9 0.966729 20.33C0.919749 20.3459 0.877617 20.3735 0.844353 20.4102C0.81109 20.447 0.787808 20.4917 0.77673 20.54C0.678729 20.8538 0.649437 21.185 0.69085 21.5112C0.732263 21.8373 0.843411 22.1507 1.01673 22.43C1.25673 22.86 1.67673 23.52 2.11673 23.37C3.78673 22.64 5.33673 21.82 7.03673 21.09C7.84216 20.6322 8.76145 20.4137 9.68673 20.46C9.94567 20.4815 10.1945 20.5703 10.4085 20.7177C10.6225 20.865 10.7943 21.0658 10.9067 21.3C11.1947 22.1324 11.4351 22.9804 11.6267 23.84C11.9267 24.47 13.9767 23.75 13.8967 23.2C13.8967 23.2 13.0867 21.52 12.8967 20.97C12.8443 20.711 12.8886 20.4418 13.0213 20.2133C13.1539 19.9848 13.3658 19.8128 13.6167 19.73C17.1154 18.7975 20.7535 18.5028 24.3567 18.86C25.0769 18.8942 25.7946 18.9677 26.5067 19.08L28.7167 19.5C29.7167 19.68 30.4067 19.99 31.4067 20.2C31.6367 20.27 31.6867 20.06 31.7067 19.97V19.86C32.2867 16.04 39.0867 18.57 36.9267 21.94V22.05C36.9056 22.0752 36.894 22.1071 36.894 22.14C36.894 22.1729 36.9056 22.2048 36.9267 22.23C37.6067 22.69 38.2667 23.09 39.0567 23.57H39.2767C39.6267 23.34 39.7467 22.96 40.0367 22.69C40.3521 22.3947 40.7051 22.1425 41.0867 21.94C42.7469 21.1102 44.453 20.3757 46.1967 19.74V19.62C41.5942 16.55 36.3637 14.5473 30.8878 13.7583C25.4118 12.9694 19.8287 13.4141 14.5467 15.06H14.4567Z" fill="white"/>
<path d="M14.5567 2.43001C13.4967 2.74001 12.7667 3.06001 11.8867 3.27001C11.6674 3.28074 11.4506 3.21899 11.2699 3.09428C11.0892 2.96958 10.9545 2.78886 10.8867 2.58001C10.6167 1.79001 10.5467 0.87001 10.2367 0.17001C9.74672 -0.30999 8.01672 0.290011 8.01672 0.940011C8.23672 1.70001 8.79672 2.60001 9.11672 3.50001C9.19145 3.75804 9.19145 4.03198 9.11672 4.29001C9.06149 4.56289 8.94194 4.81865 8.76802 5.03605C8.5941 5.25346 8.37082 5.42622 8.11672 5.54001C7.1544 5.97722 6.1489 6.31238 5.11672 6.54001C3.72672 6.91001 2.40672 7.27001 1.05672 7.69001C1.00835 7.70526 0.964634 7.73251 0.929658 7.76924C0.894682 7.80596 0.869586 7.85095 0.856717 7.90001C0.75952 8.21442 0.731539 8.54615 0.774694 8.87239C0.817848 9.19864 0.931116 9.51168 1.10672 9.79001C1.33672 10.22 1.75672 10.88 2.19672 10.73C3.87672 10 5.42672 9.19001 7.12672 8.47001C7.89796 7.99373 8.79047 7.75063 9.69672 7.77001C9.95713 7.79079 10.2076 7.87922 10.4233 8.02655C10.6391 8.17389 10.8126 8.37501 10.9267 8.61001C11.2467 9.45001 11.6267 11.13 11.6467 11.15C11.9467 11.78 13.9867 11.06 13.9167 10.5C13.9167 10.5 13.0967 8.83001 12.9167 8.28001C12.8721 8.0175 12.926 7.74776 13.0681 7.52259C13.2103 7.29741 13.4306 7.13267 13.6867 7.06001C17.1889 6.12754 20.8302 5.83285 24.4367 6.19001C25.1541 6.22265 25.8688 6.29946 26.5767 6.42001L28.7867 6.82001C29.7867 7.01001 30.4767 7.31001 31.4867 7.53001C31.7067 7.60001 31.7567 7.39001 31.7767 7.30001V7.19001C32.3567 3.37001 39.1567 5.90001 36.9967 9.26001V9.38001C36.9756 9.40522 36.964 9.43709 36.964 9.47001C36.964 9.50293 36.9756 9.53479 36.9967 9.56001C37.6667 10.02 38.3367 10.41 39.1167 10.9H39.3467C39.6967 10.67 39.8167 10.3 40.1067 10.03C40.4055 9.73696 40.7417 9.48477 41.1067 9.28001C42.7667 8.45284 44.4729 7.72164 46.2167 7.09001V6.95001C41.6272 3.90157 36.4172 1.91184 30.964 1.12491C25.5108 0.337974 19.9509 0.773519 14.6867 2.40001L14.5567 2.43001Z" fill="white"/>
<path d="M14.3967 27.75C13.3367 28.06 12.6167 28.38 11.7267 28.59C11.5074 28.6007 11.2906 28.539 11.1099 28.4143C10.9292 28.2896 10.7945 28.1088 10.7267 27.9C10.4467 27.11 10.3867 26.19 10.0867 25.49C9.5867 25.01 7.8667 25.6 7.8567 26.26C8.0867 27.01 8.6467 27.92 8.9567 28.82C9.03671 29.0773 9.03671 29.3527 8.9567 29.61C8.89988 29.8835 8.77985 30.1399 8.60621 30.3587C8.43257 30.5774 8.21014 30.7526 7.9567 30.87C7.00693 31.2952 6.01924 31.63 5.0067 31.87C3.6167 32.22 2.3067 32.58 0.946699 33.01C0.899182 33.0268 0.856302 33.0545 0.821547 33.091C0.786792 33.1275 0.761149 33.1717 0.746702 33.22C0.65212 33.5348 0.625493 33.866 0.668593 34.1919C0.711692 34.5177 0.823533 34.8306 0.996702 35.11C1.2367 35.55 1.6467 36.2 2.0867 36.05C3.7667 35.33 5.3167 34.5 7.0167 33.78C7.79478 33.3111 8.68831 33.0686 9.5967 33.08C9.85555 33.1063 10.1034 33.1981 10.3169 33.3468C10.5304 33.4956 10.7024 33.6963 10.8167 33.93C11.1011 34.7635 11.3414 35.6113 11.5367 36.47C11.8267 37.1 13.8867 36.38 13.8067 35.82C13.8067 35.82 12.9967 34.16 12.8067 33.6C12.7472 33.3405 12.7884 33.0682 12.9221 32.838C13.0557 32.6078 13.2719 32.4369 13.5267 32.36C17.0256 31.4288 20.6629 31.1308 24.2667 31.48C24.9867 31.54 25.6767 31.58 26.4167 31.71L28.6167 32.13C29.6167 32.31 30.3067 32.62 31.3167 32.83C31.5467 32.89 31.5867 32.69 31.6067 32.6V32.49C32.1867 28.67 38.9867 31.19 36.8267 34.57L36.7767 34.68C36.7555 34.7052 36.7439 34.7371 36.7439 34.77C36.7439 34.8029 36.7555 34.8348 36.7767 34.86C37.4467 35.33 38.1167 35.71 38.9067 36.2H39.1267C39.4767 35.97 39.5967 35.59 39.8867 35.32C40.1841 35.0254 40.5206 34.773 40.8867 34.57C42.5461 33.7385 44.2523 33.0039 45.9967 32.37V32.24C41.4078 29.1982 36.2002 27.2147 30.7505 26.433C25.3009 25.6513 19.7456 26.0909 14.4867 27.72L14.3967 27.75Z" fill="white"/>
<path d="M59.1367 9.63H72.8967V12H61.7567V17.38H72.0667V19.76H61.7567V25.81H73.0567V28.18H59.1367V9.63Z" fill="white"/>
<path d="M81.1868 20.27C84.5568 21.04 85.4968 22.17 85.4968 24.08C85.4968 26.55 83.4968 28.59 79.9368 28.59C75.5868 28.59 74.2268 26.3 74.2268 23.77H76.5868C76.5868 25.06 77.1068 26.48 80.2468 26.48C82.0268 26.48 83.0968 25.66 83.0968 24.48C83.0968 23.61 82.5468 23.06 80.9268 22.68L78.2568 22.06C76.2568 21.62 74.6468 20.82 74.6468 18.45C74.6468 16.08 76.3968 14.36 79.8768 14.36C83.6668 14.36 85.1368 16.65 85.1368 18.68H82.7768C82.6568 17.68 82.1268 16.47 79.7768 16.47C78.0468 16.47 77.1068 17.34 77.1068 18.3C77.1068 19.26 78.0468 19.61 79.4068 19.9L81.1868 20.27Z" fill="white"/>
<path d="M93.2668 20.27C96.6368 21.04 97.5868 22.17 97.5868 24.08C97.5868 26.55 95.5868 28.59 92.0068 28.59C87.6668 28.59 86.3068 26.3 86.3068 23.77H88.6868C88.7368 25.06 89.2068 26.48 92.3468 26.48C94.1268 26.48 95.1968 25.66 95.1968 24.48C95.1968 23.61 94.6468 23.06 93.0268 22.68L90.3368 22.06C88.3368 21.62 86.7268 20.82 86.7268 18.45C86.7268 16.08 88.4868 14.36 91.9568 14.36C95.7568 14.36 97.2168 16.65 97.2168 18.68H94.8668C94.7368 17.68 94.2068 16.47 91.8068 16.47C90.0768 16.47 89.1368 17.34 89.1368 18.3C89.1368 19.26 90.0768 19.61 91.4368 19.9L93.2668 20.27Z" fill="white"/>
<path d="M111.057 23.72C110.872 25.1258 110.162 26.4096 109.069 27.3131C107.977 28.2166 106.582 28.6728 105.167 28.59C101.057 28.59 98.8368 25.89 98.8368 21.45C98.8368 17.01 101.057 14.32 105.167 14.32C108.907 14.32 111.237 16.74 111.237 20.76C111.237 21.22 111.237 21.69 111.187 22.1H101.347C101.427 25.24 103.127 26.48 105.167 26.48C105.982 26.4973 106.778 26.2318 107.42 25.7287C108.061 25.2256 108.509 24.5158 108.687 23.72H111.057ZM108.777 20.14C108.789 19.6579 108.704 19.1783 108.528 18.7294C108.353 18.2804 108.089 17.8711 107.752 17.5255C107.416 17.1799 107.014 16.9049 106.57 16.7168C106.126 16.5287 105.649 16.4312 105.167 16.43C102.997 16.43 101.687 17.48 101.347 20.14H108.777Z" fill="white"/>
<path d="M115.447 21.28L110.897 14.73H113.877L116.937 19.42L119.997 14.73H122.977L118.427 21.28L123.317 28.18H120.337L116.937 23.03L113.537 28.18H110.557L115.447 21.28Z" fill="white"/>
<path d="M144.867 21.22C144.497 24.16 142.717 28.59 136.867 28.59C131.657 28.59 128.257 24.91 128.257 18.9C128.257 12.89 131.657 9.21002 136.867 9.21002C143.227 9.21002 144.737 13.56 144.867 15.5H142.247C142.015 14.3343 141.361 13.2951 140.411 12.581C139.461 11.867 138.281 11.5284 137.097 11.63C133.277 11.63 131.007 14.42 131.007 18.9C131.007 23.38 133.277 26.17 137.097 26.17C140.917 26.17 141.887 23.17 142.247 21.17L144.867 21.22Z" fill="white"/>
<path d="M152.187 26.48C154.437 26.48 156.007 25.04 156.007 21.48C156.007 17.92 154.437 16.48 152.187 16.48C149.937 16.48 148.367 17.92 148.367 21.48C148.367 25.04 149.937 26.48 152.187 26.48ZM145.857 21.48C145.857 17.05 148.077 14.34 152.187 14.34C156.297 14.34 158.517 17.05 158.517 21.48C158.517 25.91 156.287 28.62 152.187 28.62C148.087 28.62 145.857 25.92 145.857 21.48Z" fill="white"/>
<path d="M169.057 26.5C168.452 27.1628 167.715 27.6912 166.894 28.0513C166.072 28.4113 165.184 28.5948 164.287 28.59C161.777 28.59 160.207 27.2 160.207 23.7V14.7H162.617V23.7C162.569 24.0502 162.6 24.4068 162.709 24.7431C162.818 25.0794 163.001 25.3868 163.245 25.6425C163.489 25.8982 163.788 26.0955 164.119 26.2197C164.45 26.3439 164.805 26.3919 165.157 26.36C165.643 26.399 166.133 26.3361 166.593 26.1753C167.054 26.0145 167.476 25.7594 167.833 25.4263C168.19 25.0932 168.473 24.6894 168.665 24.2406C168.856 23.7918 168.953 23.308 168.947 22.82V14.73H171.347V28.18H169.057V26.5Z" fill="white"/>
<path d="M173.787 14.73H176.087V16.4C176.689 15.7383 177.425 15.2111 178.245 14.8527C179.065 14.4943 179.952 14.3128 180.847 14.32C183.197 14.32 184.927 15.71 184.927 19.21V28.21H182.517V19.21C182.552 18.8631 182.511 18.5128 182.398 18.183C182.286 17.8532 182.103 17.5517 181.862 17.2991C181.622 17.0465 181.33 16.8488 181.007 16.7195C180.683 16.5902 180.335 16.5324 179.987 16.55C179.503 16.5158 179.018 16.581 178.561 16.7416C178.103 16.9021 177.684 17.1545 177.328 17.4834C176.972 17.8122 176.687 18.2105 176.491 18.6536C176.294 19.0967 176.191 19.5753 176.187 20.06V28.18H173.787V14.73Z" fill="white"/>
<path d="M192.247 28.36C191.857 28.36 191.247 28.36 190.657 28.36C188.217 28.36 187.537 27.56 187.537 24.93V16.63H185.737V14.73H187.537V11.12H189.947V14.73H192.197V16.68H189.947V24.68C189.947 26 190.367 26.31 191.257 26.31C191.537 26.31 192.017 26.31 192.257 26.31L192.247 28.36Z" fill="white"/>
<path d="M200.277 29.65C198.937 33.31 197.787 33.65 196.277 33.65C195.705 33.6345 195.136 33.5676 194.577 33.45V31.27C195.044 31.409 195.529 31.4797 196.017 31.48C197.327 31.48 197.767 29.98 198.317 28.48L193.287 14.73H195.907L199.567 25.37H199.617L203.197 14.73H205.767L200.277 29.65Z" fill="white"/>
<path d="M227.617 21.22C227.257 24.16 225.477 28.59 219.617 28.59C214.407 28.59 210.997 24.91 210.997 18.9C210.997 12.89 214.407 9.21002 219.617 9.21002C225.977 9.21002 227.497 13.56 227.617 15.5H224.997C224.765 14.3343 224.111 13.2951 223.161 12.581C222.211 11.867 221.031 11.5284 219.847 11.63C216.027 11.63 213.747 14.42 213.747 18.9C213.724 20.1095 213.924 21.313 214.337 22.45C214.732 23.5809 215.482 24.554 216.474 25.2243C217.467 25.8946 218.65 26.2263 219.847 26.17C223.537 26.17 224.637 23.17 224.997 21.17L227.617 21.22Z" fill="white"/>
<path d="M234.967 26.48C237.217 26.48 238.787 25.04 238.787 21.48C238.787 17.92 237.217 16.48 234.967 16.48C232.717 16.48 231.147 17.92 231.147 21.48C231.147 25.04 232.717 26.48 234.967 26.48ZM228.637 21.48C228.637 17.05 230.857 14.34 234.967 14.34C239.077 14.34 241.297 17.05 241.297 21.48C241.297 25.91 239.077 28.62 234.967 28.62C230.857 28.62 228.687 25.89 228.687 21.45" fill="white"/>
<path d="M251.597 26.5C250.995 27.164 250.26 27.6934 249.44 28.0536C248.62 28.4137 247.733 28.5965 246.837 28.59C244.327 28.59 242.757 27.2 242.757 23.7V14.7H245.167V23.7C245.116 24.0499 245.145 24.4068 245.251 24.7441C245.357 25.0813 245.538 25.3903 245.78 25.6479C246.022 25.9055 246.32 26.1051 246.65 26.2319C246.98 26.3586 247.334 26.4093 247.687 26.38C248.173 26.419 248.662 26.3561 249.123 26.1953C249.584 26.0345 250.006 25.7794 250.363 25.4463C250.72 25.1132 251.003 24.7094 251.195 24.2606C251.386 23.8118 251.482 23.328 251.477 22.84V14.73H253.887V28.18H251.577L251.597 26.5Z" fill="white"/>
<path d="M255.967 14.73H258.267V16.4C258.87 15.7383 259.605 15.2111 260.425 14.8527C261.245 14.4943 262.132 14.3128 263.027 14.32C265.377 14.32 267.107 15.71 267.107 19.21V28.21H264.687V19.21C264.722 18.8622 264.681 18.511 264.568 18.1805C264.454 17.8499 264.271 17.5479 264.029 17.2951C263.788 17.0423 263.495 16.8448 263.17 16.7162C262.845 16.5876 262.496 16.5309 262.147 16.55C261.665 16.5186 261.183 16.586 260.728 16.7479C260.274 16.9098 259.858 17.1629 259.505 17.4916C259.151 17.8203 258.869 18.2176 258.675 18.6593C258.481 19.101 258.38 19.5776 258.377 20.06V28.18H255.967V14.73Z" fill="white"/>
<path d="M280.237 23.33C280.227 24.0425 280.074 24.7458 279.788 25.3984C279.502 26.0511 279.088 26.6398 278.571 27.13C278.053 27.6202 277.443 28.0019 276.776 28.2527C276.109 28.5034 275.399 28.6181 274.687 28.59C270.587 28.59 268.367 25.89 268.367 21.45C268.367 17.01 270.587 14.32 274.687 14.32C278.787 14.32 280.157 17.2 280.157 19.32H277.807C277.802 18.9221 277.717 18.5293 277.555 18.1655C277.394 17.8018 277.16 17.4747 276.868 17.2043C276.576 16.9339 276.232 16.7257 275.857 16.5926C275.482 16.4595 275.084 16.4042 274.687 16.43C272.437 16.43 270.877 17.87 270.877 21.43C270.877 24.99 272.437 26.43 274.687 26.43C276.937 26.43 277.687 24.29 277.887 23.28L280.237 23.33Z" fill="white"/>
<path d="M281.457 9.62H283.867V12.25H281.457V9.62ZM281.457 14.73H283.867V28.18H281.457V14.73Z" fill="white"/>
<path d="M288.397 9.63H285.987V28.18H288.397V9.63Z" fill="white"/>
</g>
<defs>
<clipPath id="clip0_185_481">
<rect width="287.72" height="36.74" fill="white" transform="translate(0.676758)"/>
</clipPath>
</defs>
</svg>
