<svg width="20" height="20" viewBox="0 0 20 20" fill="none" xmlns="http://www.w3.org/2000/svg">
<path d="M2.02041e-06 9.98356C1.9905e-06 10.3256 0.136069 10.6536 0.377837 10.8955C0.619606 11.1373 0.947735 11.2732 1.28982 11.2732L15.4343 11.2732L10.1915 16.1612C9.92751 16.3908 9.76805 16.718 9.75006 17.0677C9.73184 17.4175 9.85689 17.7593 10.096 18.015C10.335 18.2707 10.6679 18.4183 11.0178 18.4237C11.3678 18.4293 11.7052 18.2921 11.9521 18.044L19.59 10.9283C19.8516 10.6845 20 10.3429 20 9.98532C20 9.62773 19.8516 9.28607 19.59 9.0423L11.9521 1.92316C11.6152 1.60875 11.1362 1.49787 10.6954 1.63236C10.2546 1.76707 9.91903 2.12647 9.81511 2.57561C9.7112 3.02451 9.85469 3.49479 10.1916 3.80944L15.4343 8.6941L1.28988 8.6941C0.9478 8.6941 0.619644 8.82994 0.377887 9.07171C0.136118 9.3137 5.12476e-05 9.64161 5.12177e-05 9.98369L2.02041e-06 9.98356Z" fill="#414745"/>
</svg>
