<svg width="65" height="64" viewBox="0 0 65 64" fill="none" xmlns="http://www.w3.org/2000/svg">
<rect width="64" height="64" transform="translate(0.171387)" fill="white"/>
<path d="M6.67139 11.3447C6.67139 10.2402 7.56682 9.34473 8.67139 9.34473H56.2964C57.401 9.34473 58.2964 10.2402 58.2964 11.3447V40.447C58.2964 43.7607 55.6101 46.447 52.2964 46.447H12.6714C9.35768 46.447 6.67139 43.7607 6.67139 40.447V11.3447Z" stroke="#414745" stroke-width="3" stroke-linecap="round" stroke-linejoin="round"/>
<path d="M32.1406 46.9471L32.1406 57.75" stroke="#414745" stroke-width="3" stroke-linecap="round" stroke-linejoin="round"/>
<path d="M32.1406 6L32.1406 9.34461" stroke="#414745" stroke-width="3" stroke-linecap="round" stroke-linejoin="round"/>
<path d="M35.7539 47.2644L44.2413 56.4753" stroke="#414745" stroke-width="3" stroke-linecap="round" stroke-linejoin="round"/>
<path d="M28.8014 47.2644L20.314 56.4753" stroke="#414745" stroke-width="3" stroke-linecap="round" stroke-linejoin="round"/>
<line x1="10.7026" y1="16.375" x2="53.6401" y2="16.375" stroke="#414745" stroke-width="3" stroke-linecap="round" stroke-linejoin="round"/>
<path d="M17.8589 24.8125L23.4839 24.8125" stroke="#414745" stroke-width="5" stroke-linecap="round" stroke-linejoin="round"/>
<path d="M17.8589 33.6683L33.7539 33.6683" stroke="#414745" stroke-width="5" stroke-linecap="round" stroke-linejoin="round"/>
</svg>
