<svg width="64" height="64" viewBox="0 0 64 64" fill="none" xmlns="http://www.w3.org/2000/svg">
<rect width="64" height="64" fill="white"/>
<rect x="14.375" y="12.75" width="35.875" height="22.125" rx="2" stroke="#414745" stroke-width="2"/>
<path fill-rule="evenodd" clip-rule="evenodd" d="M9.40796 39.0392L2.84699 46.5362C2.72613 46.6579 2.59668 46.9051 2.59668 47.2092V49.2321C2.59668 50.9123 3.95821 52.2738 5.6384 52.2738H10.7079C11.2674 52.2738 11.7218 51.8193 11.7218 51.2599C11.7218 50.7004 11.2674 50.246 10.7079 50.246H5.6384C5.07895 50.246 4.6245 49.7915 4.6245 49.2321V48.2182H59.3755V49.2321C59.3755 49.7915 58.9211 50.246 58.3616 50.246H16.7914C16.2319 50.246 15.7775 50.7004 15.7775 51.2599C15.7775 51.8193 16.2319 52.2738 16.7914 52.2738H58.3616C60.0418 52.2738 61.4033 50.9123 61.4033 49.2321V47.2092C61.4033 46.9132 61.3617 46.7457 61.153 46.5362L54.592 39.0392C55.0465 38.5078 55.3199 37.8184 55.3199 37.0652V10.7639C55.3199 9.0837 53.9583 7.72217 52.2782 7.72217H20.847C20.2876 7.72217 19.8331 8.17662 19.8331 8.73608C19.8331 9.29553 20.2876 9.74998 20.847 9.74998H52.2782C52.8376 9.74998 53.2921 10.2044 53.2921 10.7639V37.0652C53.2921 37.6247 52.8376 38.0791 52.2782 38.0791H11.7218C11.1624 38.0791 10.7079 37.6247 10.7079 37.0652V36.0513H51.2642C51.8237 36.0513 52.2782 35.5969 52.2782 35.0374C52.2782 34.478 51.8237 34.0235 51.2642 34.0235H10.7079V10.7639C10.7079 10.2044 11.1624 9.74998 11.7218 9.74998H17.8053C18.3648 9.74998 18.8192 9.29553 18.8192 8.73608C18.8192 8.17662 18.3648 7.72217 17.8053 7.72217H11.7218C10.0417 7.72217 8.68012 9.0837 8.68012 10.7639V37.0652C8.68012 37.8184 8.95397 38.5082 9.40796 39.0392ZM52.7939 40.063C52.6256 40.0915 52.4531 40.1065 52.2779 40.1065H11.7216C11.546 40.1065 11.374 40.0911 11.2056 40.063L5.84501 46.1899H24.3201L26.3928 42.6372C26.5743 42.3258 26.9079 42.1343 27.2678 42.1343H36.7315C37.0914 42.1343 37.4249 42.3258 37.6065 42.6372L38.2008 43.6552C38.4828 44.1386 38.3194 44.7605 37.836 45.0421C37.3525 45.3241 36.732 45.1607 36.45 44.6773L36.149 44.1622H27.8513L26.6681 46.19H58.1548L52.7939 40.063Z" fill="#414745"/>
<path fill-rule="evenodd" clip-rule="evenodd" d="M14.7637 51.264C14.7637 51.8239 14.3097 52.2779 13.7497 52.2779C13.1898 52.2779 12.7358 51.8239 12.7358 51.264C12.7358 50.7041 13.1898 50.2501 13.7497 50.2501C14.3097 50.2501 14.7637 50.7041 14.7637 51.264Z" fill="#414745"/>
</svg>
