<svg width="66" height="64" viewBox="0 0 66 64" fill="none" xmlns="http://www.w3.org/2000/svg">
<rect width="64.9275" height="64" transform="translate(0.63916)" fill="white"/>
<path d="M23.0604 28.3126C21.8744 28.6595 21.0577 29.0175 20.0732 29.2524C19.83 29.254 19.5923 29.1807 19.3922 29.0426C19.1921 28.9046 19.0392 28.7083 18.9543 28.4805C18.6523 27.5966 18.5851 26.5673 18.2383 25.7841C17.6901 25.2583 15.7657 25.9072 15.7545 26.6456C16.0007 27.4959 16.6272 28.5028 16.9852 29.5098C17.0636 29.803 17.0636 30.1116 16.9852 30.4048C16.9193 30.7084 16.7839 30.9927 16.5899 31.2353C16.3958 31.4779 16.1482 31.6723 15.8664 31.8033C14.7885 32.2891 13.6639 32.664 12.51 32.9221C10.9548 33.3249 9.4892 33.7277 7.96762 34.2088C7.91505 34.2265 7.86792 34.2574 7.8307 34.2985C7.79349 34.3397 7.76744 34.3897 7.75504 34.4437C7.6454 34.7948 7.61263 35.1654 7.65896 35.5302C7.70529 35.8951 7.82965 36.2457 8.02356 36.5583C8.29207 37.0394 8.76197 37.7778 9.25425 37.61C11.1227 36.7932 12.8568 35.8758 14.7588 35.0591C15.6599 34.5469 16.6884 34.3024 17.7237 34.3542C18.0134 34.3783 18.2917 34.4776 18.5312 34.6425C18.7706 34.8074 18.9628 35.032 19.0886 35.294C19.4108 36.2252 19.6797 37.174 19.8941 38.1358C20.2298 38.8407 22.5234 38.0351 22.4338 37.4198C22.4338 37.4198 21.5276 35.5402 21.315 34.9248C21.2563 34.6351 21.3059 34.3338 21.4544 34.0782C21.6028 33.8225 21.8398 33.6301 22.1206 33.5375C26.035 32.4941 30.1053 32.1644 34.1366 32.5641C34.9423 32.6024 35.7453 32.6845 36.5421 32.8103L39.0146 33.2802C40.1334 33.4815 40.9054 33.8284 42.0242 34.0633C42.2816 34.1416 42.3375 33.9067 42.3599 33.806V33.6829C43.0088 29.4091 50.6167 32.2397 48.2001 36.0101V36.1331C48.1764 36.1613 48.1634 36.197 48.1634 36.2338C48.1634 36.2707 48.1764 36.3063 48.2001 36.3345C48.9609 36.8492 49.6993 37.2967 50.5831 37.8337H50.8293C51.2209 37.5764 51.3551 37.1512 51.6796 36.8492C52.0324 36.5188 52.4274 36.2366 52.8543 36.0101C54.7117 35.0817 56.6205 34.2599 58.5715 33.5487V33.4144C53.4221 29.9796 47.5702 27.739 41.4436 26.8563C35.317 25.9736 29.0706 26.4712 23.1611 28.3126H23.0604Z" fill="#414745"/>
<path d="M23.1725 14.1822C21.9865 14.5291 21.1698 14.8871 20.1852 15.122C19.9399 15.134 19.6974 15.0649 19.4952 14.9254C19.293 14.7859 19.1423 14.5837 19.0664 14.35C18.7644 13.4662 18.686 12.4369 18.3392 11.6537C17.791 11.1167 15.8554 11.788 15.8554 12.5152C16.1016 13.3655 16.7281 14.3724 17.0861 15.3794C17.1697 15.668 17.1697 15.9745 17.0861 16.2632C17.0243 16.5685 16.8906 16.8547 16.696 17.0979C16.5014 17.3411 16.2516 17.5344 15.9673 17.6617C14.8907 18.1509 13.7657 18.5259 12.6109 18.7805C11.0557 19.1945 9.57891 19.5973 8.06852 20.0672C8.0144 20.0842 7.96549 20.1147 7.92636 20.1558C7.88723 20.1969 7.85915 20.2472 7.84475 20.3021C7.73601 20.6539 7.7047 21.025 7.75299 21.39C7.80127 21.7551 7.92799 22.1053 8.12446 22.4167C8.38178 22.8978 8.85168 23.6362 9.34396 23.4684C11.2236 22.6516 12.9577 21.7454 14.8597 20.9398C15.7226 20.407 16.7211 20.135 17.735 20.1567C18.0264 20.1799 18.3066 20.2789 18.548 20.4437C18.7894 20.6085 18.9835 20.8336 19.1112 21.0965C19.4692 22.0363 19.8944 23.9159 19.9167 23.9383C20.2524 24.6431 22.5348 23.8376 22.4564 23.211C22.4564 23.211 21.539 21.3426 21.3376 20.7273C21.2877 20.4336 21.348 20.1318 21.507 19.8799C21.666 19.6279 21.9125 19.4436 22.1991 19.3623C26.1173 18.3191 30.1913 17.9894 34.2263 18.389C35.0289 18.4255 35.8285 18.5114 36.6206 18.6463L39.0932 19.0938C40.212 19.3064 40.984 19.642 42.114 19.8882C42.3601 19.9665 42.416 19.7315 42.4384 19.6308V19.5078C43.0873 15.2339 50.6952 18.0645 48.2786 21.8237V21.958C48.2549 21.9862 48.2419 22.0218 48.2419 22.0587C48.2419 22.0955 48.2549 22.1311 48.2786 22.1593C49.0282 22.674 49.7778 23.1103 50.6505 23.6586H50.9078C51.2994 23.4012 51.4336 22.9873 51.7581 22.6852C52.0924 22.3573 52.4686 22.0752 52.8769 21.8461C54.7342 20.9206 56.643 20.1026 58.594 19.3959V19.2393C53.4592 15.8286 47.6303 13.6025 41.5292 12.7221C35.4281 11.8416 29.2075 12.3289 23.3179 14.1487L23.1725 14.1822Z" fill="#414745"/>
<path d="M22.9934 42.5105C21.8075 42.8573 21.0019 43.2153 20.0062 43.4503C19.7608 43.4623 19.5183 43.3932 19.3161 43.2537C19.1139 43.1142 18.9632 42.912 18.8874 42.6783C18.5741 41.7945 18.507 40.7652 18.1713 39.982C17.6119 39.445 15.6876 40.105 15.6764 40.8435C15.9337 41.6826 16.5602 42.7007 16.9071 43.7076C16.9966 43.9954 16.9966 44.3037 16.9071 44.5915C16.8435 44.8975 16.7092 45.1843 16.5149 45.4291C16.3207 45.6739 16.0718 45.8698 15.7882 46.0012C14.7256 46.4769 13.6206 46.8515 12.4878 47.12C10.9326 47.5116 9.46696 47.9144 7.94538 48.3954C7.89222 48.4142 7.84424 48.4453 7.80536 48.4861C7.76647 48.5269 7.73778 48.5764 7.72162 48.6304C7.6158 48.9826 7.58601 49.3532 7.63423 49.7177C7.68245 50.0823 7.80758 50.4324 8.00132 50.745C8.26984 51.2372 8.72855 51.9645 9.22083 51.7966C11.1004 50.9911 12.8346 50.0625 14.7366 49.2569C15.6071 48.7323 16.6068 48.461 17.6231 48.4738C17.9127 48.5031 18.19 48.6059 18.4289 48.7723C18.6677 48.9387 18.8602 49.1633 18.9881 49.4248C19.3062 50.3572 19.5751 51.3058 19.7936 52.2665C20.118 52.9714 22.4228 52.1658 22.3333 51.5393C22.3333 51.5393 21.4271 49.6821 21.2145 49.0555C21.1479 48.7653 21.194 48.4605 21.3436 48.203C21.4931 47.9454 21.7349 47.7543 22.02 47.6682C25.9347 46.6264 30.0041 46.2929 34.0361 46.6837C34.8416 46.7508 35.6136 46.7955 36.4415 46.941L38.9029 47.4109C40.0217 47.6123 40.7937 47.9591 41.9237 48.1941C42.181 48.2612 42.2258 48.0374 42.2481 47.9367V47.8137C42.897 43.5398 50.505 46.3592 48.0883 50.1408L48.0324 50.2639C48.0087 50.2921 47.9957 50.3277 47.9957 50.3646C47.9957 50.4014 48.0087 50.437 48.0324 50.4652C48.782 50.9911 49.5316 51.4162 50.4155 51.9645H50.6616C51.0532 51.7071 51.1874 51.282 51.5119 50.9799C51.8446 50.6503 52.2211 50.3679 52.6307 50.1408C54.4872 49.2105 56.3961 48.3886 58.3478 47.6794V47.534C53.2138 44.1308 47.3873 41.9116 41.2902 41.037C35.1931 40.1624 28.9778 40.6543 23.0941 42.4769L22.9934 42.5105Z" fill="#414745"/>
</svg>
