<svg width="66" height="64" viewBox="0 0 66 64" fill="none" xmlns="http://www.w3.org/2000/svg">
<rect width="64.9275" height="64" transform="translate(0.92749)" fill="white"/>
<path d="M30.927 43.5111C30.927 42.0825 32.0851 40.9244 33.5137 40.9244H33.5886C35.0172 40.9244 36.1753 42.0825 36.1753 43.5111V43.5111C36.1753 44.9396 35.0172 46.0977 33.5886 46.0977H33.5137C32.0851 46.0977 30.927 44.9396 30.927 43.5111V43.5111ZM30.927 17.6819C30.927 16.2326 32.1019 15.0577 33.5512 15.0577V15.0577C35.0004 15.0577 36.1753 16.2326 36.1753 17.6819V33.1269C36.1753 34.5762 35.0004 35.7511 33.5512 35.7511V35.7511C32.1019 35.7511 30.927 34.5762 30.927 33.1269V17.6819Z" fill="#414745"/>
<circle cx="33.3912" cy="32" r="23.25" stroke="#414745" stroke-width="3"/>
</svg>
