<svg width="66" height="64" viewBox="0 0 66 64" fill="none" xmlns="http://www.w3.org/2000/svg">
<rect width="64.9275" height="64" transform="translate(0.782471)" fill="white"/>
<path d="M56.5325 46.875C56.5325 51.2933 52.9495 54.875 48.5312 54.875C39.2255 54.875 32.0117 54.875 22.0332 54.875C19.8241 54.875 18.0325 53.0841 18.0325 50.875L18.0325 39.125L56.5325 39.125L56.5325 46.875Z" stroke="#414745" stroke-width="3"/>
<path d="M10.0325 13.5C10.0325 11.2909 11.8233 9.5 14.0325 9.5H42.5325C44.7416 9.5 46.5325 11.2909 46.5325 13.5V54.875H14.0325C11.8233 54.875 10.0325 53.0841 10.0325 50.875V13.5Z" fill="white" stroke="#414745" stroke-width="3"/>
<path d="M17.3029 21.5229C17.3029 20.9275 17.5428 20.3564 17.97 19.9354C18.3971 19.5144 18.9764 19.2778 19.5805 19.2778H36.2831C36.8871 19.2778 37.4665 19.5144 37.8936 19.9354C38.3207 20.3564 38.5607 20.9275 38.5607 21.5229C38.5607 22.1184 38.3207 22.6894 37.8936 23.1104C37.4665 23.5315 36.8871 23.768 36.2831 23.768H19.5805C18.9764 23.768 18.3971 23.5315 17.97 23.1104C17.5428 22.6894 17.3029 22.1184 17.3029 21.5229ZM17.3029 32C17.3029 31.4046 17.5428 30.8335 17.97 30.4125C18.3971 29.9915 18.9764 29.7549 19.5805 29.7549H36.2831C36.8871 29.7549 37.4665 29.9915 37.8936 30.4125C38.3207 30.8335 38.5607 31.4046 38.5607 32C38.5607 32.5954 38.3207 33.1665 37.8936 33.5875C37.4665 34.0086 36.8871 34.2451 36.2831 34.2451H19.5805C18.9764 34.2451 18.3971 34.0086 17.97 33.5875C17.5428 33.1665 17.3029 32.5954 17.3029 32ZM17.3029 42.4771C17.3029 41.8817 17.5428 41.3106 17.97 40.8896C18.3971 40.4685 18.9764 40.232 19.5805 40.232H27.1726C27.7766 40.232 28.356 40.4685 28.7831 40.8896C29.2102 41.3106 29.4502 41.8817 29.4502 42.4771C29.4502 43.0725 29.2102 43.6436 28.7831 44.0646C28.356 44.4856 27.7766 44.7222 27.1726 44.7222H19.5805C18.9764 44.7222 18.3971 44.4856 17.97 44.0646C17.5428 43.6436 17.3029 43.0725 17.3029 42.4771Z" fill="#414745"/>
</svg>
