<svg width="17" height="17" viewBox="0 0 17 17" fill="none" xmlns="http://www.w3.org/2000/svg">
<path d="M16.0556 7.61111C15.8051 7.61111 15.5648 7.70476 15.3877 7.87146C15.2106 8.03816 15.1111 8.26425 15.1111 8.5V13.8333C15.1111 14.0691 15.0116 14.2952 14.8345 14.4619C14.6574 14.6286 14.4171 14.7222 14.1667 14.7222H2.83333C2.58285 14.7222 2.34263 14.6286 2.16551 14.4619C1.98839 14.2952 1.88889 14.0691 1.88889 13.8333V3.16667C1.88889 2.93092 1.98839 2.70483 2.16551 2.53813C2.34263 2.37143 2.58285 2.27778 2.83333 2.27778H8.5C8.75048 2.27778 8.9907 2.18413 9.16782 2.01743C9.34494 1.85073 9.44444 1.62464 9.44444 1.38889C9.44444 1.15314 9.34494 0.927048 9.16782 0.760349C8.9907 0.59365 8.75048 0.5 8.5 0.5H2.83333C2.08189 0.5 1.36122 0.780952 0.829864 1.28105C0.298511 1.78115 0 2.45942 0 3.16667V13.8333C0 14.5406 0.298511 15.2189 0.829864 15.719C1.36122 16.219 2.08189 16.5 2.83333 16.5H14.1667C14.9181 16.5 15.6388 16.219 16.1701 15.719C16.7015 15.2189 17 14.5406 17 13.8333V8.5C17 8.26425 16.9005 8.03816 16.7234 7.87146C16.5463 7.70476 16.306 7.61111 16.0556 7.61111Z" fill="#E40037"/>
<path d="M12.2775 2.27778H13.7697L7.82917 7.86C7.74065 7.94263 7.67039 8.04095 7.62244 8.14927C7.57449 8.25758 7.5498 8.37377 7.5498 8.49111C7.5498 8.60846 7.57449 8.72464 7.62244 8.83296C7.67039 8.94128 7.74065 9.03959 7.82917 9.12222C7.91697 9.20554 8.02142 9.27166 8.13651 9.31679C8.2516 9.36192 8.37505 9.38515 8.49973 9.38515C8.6244 9.38515 8.74785 9.36192 8.86294 9.31679C8.97803 9.27166 9.08248 9.20554 9.17028 9.12222L15.1108 3.54V4.94444C15.1108 5.18019 15.2103 5.40629 15.3875 5.57298C15.5646 5.73968 15.8048 5.83333 16.0553 5.83333C16.3058 5.83333 16.546 5.73968 16.7231 5.57298C16.9002 5.40629 16.9997 5.18019 16.9997 4.94444V1.38889C16.9997 1.15314 16.9002 0.927049 16.7231 0.76035C16.546 0.59365 16.3058 0.5 16.0553 0.5H12.2775C12.027 0.5 11.7868 0.59365 11.6097 0.76035C11.4326 0.927049 11.3331 1.15314 11.3331 1.38889C11.3331 1.62464 11.4326 1.85073 11.6097 2.01743C11.7868 2.18413 12.027 2.27778 12.2775 2.27778V2.27778Z" fill="#E40037"/>
</svg>
