<svg width="25" height="25" viewBox="0 0 25 25" fill="none" xmlns="http://www.w3.org/2000/svg">
<path d="M23.4468 11.3389C23.0814 11.3389 22.731 11.4794 22.4727 11.7294C22.2143 11.9795 22.0692 12.3186 22.0692 12.6722V20.6722C22.0692 21.0259 21.924 21.365 21.6656 21.6151C21.4073 21.8651 21.0569 22.0056 20.6915 22.0056H4.15979C3.79441 22.0056 3.444 21.8651 3.18565 21.6151C2.92729 21.365 2.78214 21.0259 2.78214 20.6722V4.67224C2.78214 4.31862 2.92729 3.97948 3.18565 3.72943C3.444 3.47938 3.79441 3.33891 4.15979 3.33891H12.4256C12.791 3.33891 13.1414 3.19843 13.3998 2.94838C13.6581 2.69833 13.8033 2.3592 13.8033 2.00557C13.8033 1.65195 13.6581 1.31281 13.3998 1.06277C13.1414 0.812717 12.791 0.672241 12.4256 0.672241H4.15979C3.06366 0.672241 2.01244 1.09367 1.23736 1.84381C0.462288 2.59396 0.0268555 3.61138 0.0268555 4.67224V20.6722C0.0268555 21.7331 0.462288 22.7505 1.23736 23.5007C2.01244 24.2508 3.06366 24.6722 4.15979 24.6722H20.6915C21.7876 24.6722 22.8389 24.2508 23.6139 23.5007C24.389 22.7505 24.8244 21.7331 24.8244 20.6722V12.6722C24.8244 12.3186 24.6793 11.9795 24.4209 11.7294C24.1626 11.4794 23.8122 11.3389 23.4468 11.3389Z" fill="white"/>
<path d="M17.9358 3.33891H20.1124L11.4471 11.7122C11.3179 11.8362 11.2154 11.9837 11.1455 12.1461C11.0756 12.3086 11.0396 12.4829 11.0396 12.6589C11.0396 12.8349 11.0756 13.0092 11.1455 13.1717C11.2154 13.3342 11.3179 13.4816 11.4471 13.6056C11.5751 13.7305 11.7275 13.8297 11.8954 13.8974C12.0633 13.9651 12.2433 14 12.4252 14C12.607 14 12.7871 13.9651 12.955 13.8974C13.1229 13.8297 13.2752 13.7305 13.4033 13.6056L22.0687 5.23224V7.33891C22.0687 7.69253 22.2138 8.03167 22.4722 8.28172C22.7305 8.53177 23.081 8.67224 23.4463 8.67224C23.8117 8.67224 24.1621 8.53177 24.4205 8.28172C24.6788 8.03167 24.824 7.69253 24.824 7.33891V2.00557C24.824 1.65195 24.6788 1.31281 24.4205 1.06277C24.1621 0.812717 23.8117 0.672241 23.4463 0.672241H17.9358C17.5704 0.672241 17.22 0.812717 16.9616 1.06277C16.7033 1.31281 16.5581 1.65195 16.5581 2.00557C16.5581 2.3592 16.7033 2.69833 16.9616 2.94838C17.22 3.19843 17.5704 3.33891 17.9358 3.33891Z" fill="white"/>
</svg>
