<svg width="26" height="25" viewBox="0 0 26 25" fill="none" xmlns="http://www.w3.org/2000/svg">
<path d="M24.3858 11.2887C24.0204 11.2887 23.67 11.4292 23.4116 11.6793C23.1533 11.9293 23.0081 12.2684 23.0081 12.6221V20.6221C23.0081 20.9757 22.863 21.3148 22.6046 21.5649C22.3463 21.8149 21.9958 21.9554 21.6305 21.9554H5.09875C4.73338 21.9554 4.38297 21.8149 4.12461 21.5649C3.86625 21.3148 3.72111 20.9757 3.72111 20.6221V4.62207C3.72111 4.26845 3.86625 3.92931 4.12461 3.67926C4.38297 3.42921 4.73338 3.28874 5.09875 3.28874H13.3646C13.73 3.28874 14.0804 3.14826 14.3388 2.89821C14.5971 2.64816 14.7423 2.30903 14.7423 1.9554C14.7423 1.60178 14.5971 1.26264 14.3388 1.01259C14.0804 0.762546 13.73 0.62207 13.3646 0.62207H5.09875C4.00263 0.62207 2.9514 1.0435 2.17633 1.79364C1.40125 2.54379 0.96582 3.5612 0.96582 4.62207V20.6221C0.96582 21.6829 1.40125 22.7004 2.17633 23.4505C2.9514 24.2006 4.00263 24.6221 5.09875 24.6221H21.6305C22.7266 24.6221 23.7778 24.2006 24.5529 23.4505C25.328 22.7004 25.7634 21.6829 25.7634 20.6221V12.6221C25.7634 12.2684 25.6183 11.9293 25.3599 11.6793C25.1015 11.4292 24.7511 11.2887 24.3858 11.2887Z" fill="#2E65B7"/>
<path d="M18.8747 3.28874H21.0514L12.386 11.6621C12.2569 11.786 12.1544 11.9335 12.0845 12.096C12.0145 12.2584 11.9785 12.4327 11.9785 12.6087C11.9785 12.7848 12.0145 12.959 12.0845 13.1215C12.1544 13.284 12.2569 13.4315 12.386 13.5554C12.5141 13.6804 12.6665 13.7796 12.8343 13.8473C13.0022 13.915 13.1823 13.9498 13.3641 13.9498C13.546 13.9498 13.7261 13.915 13.894 13.8473C14.0618 13.7796 14.2142 13.6804 14.3423 13.5554L23.0077 5.18207V7.28874C23.0077 7.64236 23.1528 7.9815 23.4112 8.23155C23.6695 8.48159 24.0199 8.62207 24.3853 8.62207C24.7507 8.62207 25.1011 8.48159 25.3594 8.23155C25.6178 7.9815 25.7629 7.64236 25.7629 7.28874V1.9554C25.7629 1.60178 25.6178 1.26264 25.3594 1.01259C25.1011 0.762546 24.7507 0.62207 24.3853 0.62207H18.8747C18.5093 0.62207 18.1589 0.762546 17.9006 1.01259C17.6422 1.26264 17.4971 1.60178 17.4971 1.9554C17.4971 2.30903 17.6422 2.64816 17.9006 2.89821C18.1589 3.14826 18.5093 3.28874 18.8747 3.28874Z" fill="#2E65B7"/>
</svg>
