<svg width="65" height="64" viewBox="0 0 65 64" fill="none" xmlns="http://www.w3.org/2000/svg">
<rect width="64" height="64" transform="translate(0.171387)" fill="white"/>
<path d="M43.073 35.9029C43.066 33.6549 42.8251 31.4138 42.3541 29.2157H48.3726C48.0627 28.2988 47.6884 27.405 47.2525 26.5408H41.652C40.5992 23.0235 38.9662 19.7067 36.8205 16.7274C35.4496 16.1509 34.0202 15.7249 32.5574 15.4568C35.497 18.6152 37.7158 22.3742 39.0607 26.474H30.0497V15.1726H27.542V26.4907H18.531C19.8786 22.3835 22.1034 18.6185 25.051 15.4568C23.5945 15.7205 22.1708 16.1409 20.8047 16.7107C18.6505 19.6775 17.0063 22.9828 15.9397 26.4907H10.3058C9.86202 27.3706 9.4821 28.2813 9.16895 29.2157H15.2376C14.7666 31.4138 14.5257 33.6549 14.5187 35.9029C14.5233 38.3618 14.8037 40.8123 15.3546 43.2087H9.43643C9.78229 44.1458 10.1958 45.0565 10.6736 45.9337H16.0735C17.097 49.1365 18.6143 52.1599 20.5706 54.8945C21.9715 55.4954 23.435 55.9384 24.934 56.2153C22.2055 53.2391 20.1071 49.7418 18.7651 45.9337H27.5587V56.5329H30.0664V45.9337H38.8266C37.48 49.7433 35.3759 53.2408 32.641 56.2153C34.147 55.9288 35.6162 55.4746 37.0211 54.8611C38.9743 52.1367 40.4916 49.1248 41.5182 45.9337H46.868C47.3436 45.0727 47.757 44.1788 48.1051 43.2588H42.1702C42.7474 40.8487 43.0502 38.3811 43.073 35.9029V35.9029ZM27.542 43.2087H17.9459C16.7689 38.6076 16.7173 33.7908 17.7954 29.1656H27.542V43.2087ZM39.6458 43.2087H30.0497V29.2157H39.7963C40.2765 31.412 40.512 33.6548 40.4984 35.9029C40.512 38.3638 40.2257 40.8171 39.6458 43.2087V43.2087Z" fill="#414745"/>
<path d="M28.7957 9.15405C23.5053 9.15405 18.3337 10.7228 13.9348 13.662C9.53602 16.6012 6.10757 20.7788 4.08302 25.6665C2.05846 30.5542 1.52875 35.9325 2.56086 41.1213C3.59296 46.31 6.14054 51.0762 9.88142 54.8171C13.6223 58.5579 18.3885 61.1055 23.5772 62.1376C28.766 63.1697 34.1443 62.64 39.032 60.6155C43.9197 58.5909 48.0973 55.1625 51.0365 50.7636C53.9756 46.3648 55.5444 41.1932 55.5444 35.9028C55.5444 28.8086 52.7263 22.005 47.7099 16.9886C42.6935 11.9722 35.8899 9.15405 28.7957 9.15405V9.15405ZM28.7957 59.308C24.1666 59.308 19.6414 57.9353 15.7924 55.3635C11.9435 52.7917 8.94358 49.1363 7.1721 44.8596C5.40061 40.5829 4.93711 35.8769 5.84021 31.3367C6.7433 26.7965 8.97243 22.6261 12.2457 19.3529C15.519 16.0796 19.6894 13.8505 24.2295 12.9474C28.7697 12.0443 33.4757 12.5078 37.7524 14.2793C42.0292 16.0507 45.6846 19.0506 48.2564 22.8996C50.8281 26.7486 52.2008 31.2737 52.2008 35.9028C52.2008 42.1103 49.7349 48.0635 45.3456 52.4528C40.9563 56.8421 35.0031 59.308 28.7957 59.308Z" fill="#414745"/>
<circle cx="45.7434" cy="17.8958" r="16.6905" fill="white"/>
<path d="M46.8177 3.32941C46.4601 3.30301 46.1018 3.28979 45.7433 3.28977V1.20361C46.1533 1.20381 46.5632 1.21912 46.972 1.24951L46.8177 3.32941ZM50.9983 4.26818C50.3296 4.01013 49.6428 3.80165 48.9435 3.64442L49.4003 1.60833C50.1993 1.78774 50.9858 2.02556 51.7493 2.32179L50.9983 4.26818V4.26818ZM53.8564 5.74935C53.5581 5.55043 53.2526 5.36255 52.9405 5.18609L53.969 3.37113C54.6823 3.77529 55.3649 4.2313 56.0114 4.73548L54.7284 6.38146C54.4455 6.1608 54.1547 5.95066 53.8564 5.75144V5.74935ZM57.6824 9.48357C57.2697 8.89731 56.8144 8.34228 56.3201 7.82299L57.8305 6.38354C58.3937 6.9781 58.9153 7.61438 59.3888 8.28195L57.6824 9.48357V9.48357ZM59.2345 12.3041C59.0975 11.9733 58.9486 11.6477 58.788 11.3277L60.651 10.389C61.0194 11.1214 61.3332 11.88 61.5897 12.6587L59.6079 13.3117C59.4958 12.9713 59.3712 12.6352 59.2345 12.3041V12.3041ZM60.3401 17.5341C60.3233 16.8171 60.2535 16.1024 60.1315 15.3957L62.1864 15.0411C62.3262 15.8464 62.4075 16.6641 62.4284 17.4819L60.3422 17.5341H60.3401ZM60.0668 20.7426C60.1357 20.3879 60.192 20.0354 60.2358 19.6786L62.3074 19.9352C62.2072 20.7491 62.0468 21.5545 61.8276 22.3447L59.8165 21.7877C59.9125 21.4435 59.9959 21.0951 60.0668 20.7426V20.7426ZM58.0808 25.7055C58.4647 25.1005 58.8026 24.4664 59.0947 23.8113L61.0014 24.6562C60.6677 25.4072 60.2817 26.129 59.8436 26.8216L58.0808 25.7055ZM56.0698 28.2194C56.3243 27.9648 56.5684 27.702 56.7999 27.4308L58.3812 28.793C58.1134 29.1035 57.8344 29.4041 57.5447 29.6943L56.0698 28.2194V28.2194Z" fill="#414745"/>
<path d="M45.7431 3.28977C43.3417 3.28994 40.9774 3.88234 38.8596 5.01448C36.7418 6.14662 34.9359 7.78356 33.6018 9.78033C32.2677 11.7771 31.4467 14.072 31.2114 16.4619C30.9761 18.8518 31.3337 21.2628 32.2527 23.4814C33.1718 25.7 34.6237 27.6577 36.48 29.1812C38.3363 30.7046 40.5397 31.7468 42.895 32.2153C45.2502 32.6839 47.6847 32.5643 49.9827 31.8673C52.2808 31.1703 54.3715 29.9173 56.0696 28.2194L57.5445 29.6943C55.6039 31.636 53.2142 33.0691 50.5873 33.8666C47.9604 34.664 45.1773 34.8012 42.4847 34.266C39.7921 33.7308 37.273 32.5398 35.1508 30.7983C33.0285 29.0569 31.3685 26.8189 30.318 24.2825C29.2674 21.7462 28.8586 18.9899 29.1278 16.2579C29.3971 13.5258 30.3361 10.9024 31.8616 8.61994C33.3871 6.33751 35.452 4.46659 37.8734 3.17295C40.2948 1.87931 42.9978 1.20289 45.7431 1.20361V3.28977Z" fill="#414745"/>
<path d="M44.7003 7.46191C44.9769 7.46191 45.2423 7.57181 45.4379 7.76742C45.6335 7.96304 45.7434 8.22835 45.7434 8.50499V19.3739L52.5192 23.2458C52.7524 23.3865 52.9214 23.6128 52.9899 23.8764C53.0585 24.14 53.0212 24.42 52.8861 24.6564C52.7509 24.8929 52.5287 25.0672 52.2668 25.1419C52.0049 25.2167 51.7241 25.1861 51.4845 25.0566L44.1829 20.8843C44.0233 20.7931 43.8906 20.6613 43.7983 20.5023C43.7059 20.3433 43.6573 20.1627 43.6572 19.9789V8.50499C43.6572 8.22835 43.7671 7.96304 43.9627 7.76742C44.1584 7.57181 44.4237 7.46191 44.7003 7.46191V7.46191Z" fill="#414745"/>
</svg>
