<svg width="66" height="65" viewBox="0 0 66 65" fill="none" xmlns="http://www.w3.org/2000/svg">
<rect width="64.9275" height="64" transform="translate(0.63916 0.203613)" fill="white"/>
<circle cx="33.1029" cy="32.2036" r="23.25" stroke="#414745" stroke-width="3"/>
<path fill-rule="evenodd" clip-rule="evenodd" d="M33.1029 20.9815C29.528 20.9815 28.1653 23.5787 28.1653 24.6847C28.1653 25.3395 27.9052 25.9675 27.4422 26.4305C26.9792 26.8934 26.3512 27.1536 25.6965 27.1536C25.0417 27.1536 24.4137 26.8934 23.9508 26.4305C23.4878 25.9675 23.2277 25.3395 23.2277 24.6847C23.2277 20.8532 26.8025 16.0439 33.1029 16.0439C35.9568 16.0439 38.4602 16.7574 40.2846 18.3523C42.1486 19.9842 42.9781 22.2579 42.9781 24.6847C42.9781 27.6177 42.2226 29.6915 40.8006 31.2715C40.1936 31.9252 39.5068 32.5 38.7564 32.9824C38.4564 33.1802 38.1536 33.3736 37.8479 33.5626L37.8035 33.5897C37.4973 33.7823 37.2208 33.96 36.9468 34.1403C36.0827 34.7229 35.7297 35.1574 35.5889 35.4388C35.4754 35.6561 35.3989 35.945 35.5198 36.5202C35.5866 36.8376 35.5902 37.165 35.5305 37.4838C35.4707 37.8026 35.3487 38.1065 35.1715 38.3782C34.8136 38.9268 34.2525 39.3108 33.6114 39.4457C33.294 39.5125 32.9666 39.5161 32.6478 39.4564C32.329 39.3966 32.0251 39.2746 31.7534 39.0974C31.2048 38.7395 30.8208 38.1783 30.6859 37.5373C30.3748 36.056 30.481 34.5822 31.1895 33.1947C31.8635 31.8739 32.9621 30.8691 34.1965 30.042C34.5422 29.81 34.8804 29.5977 35.1816 29.4076L35.2038 29.3928C35.505 29.2051 35.7667 29.0422 36.0136 28.8743C36.5197 28.5385 36.8678 28.2571 37.1319 27.9658C37.5615 27.4893 38.0405 26.6919 38.0405 24.6847C38.0405 23.4084 37.6356 22.5961 37.0307 22.0678C36.3864 21.5025 35.1865 20.9815 33.1029 20.9815ZM33.1029 41.4257C32.7787 41.4257 32.4576 41.4895 32.1581 41.6136C31.8586 41.7377 31.5864 41.9195 31.3572 42.1488C31.1279 42.378 30.9461 42.6502 30.822 42.9497C30.6979 43.2493 30.6341 43.5703 30.6341 43.8945C30.6341 44.2187 30.6979 44.5397 30.822 44.8393C30.9461 45.1388 31.1279 45.411 31.3572 45.6402C31.5864 45.8695 31.8586 46.0513 32.1581 46.1754C32.4576 46.2994 32.7787 46.3633 33.1029 46.3633C33.7576 46.3633 34.3856 46.1032 34.8486 45.6402C35.3116 45.1772 35.5717 44.5493 35.5717 43.8945C35.5717 43.2397 35.3116 42.6118 34.8486 42.1488C34.3856 41.6858 33.7576 41.4257 33.1029 41.4257Z" fill="#414745"/>
</svg>
