<svg width="51" height="49" viewBox="0 0 51 49" fill="none" xmlns="http://www.w3.org/2000/svg">
<path d="M14.6451 14.1662C14.6451 13.057 15.096 11.9932 15.8986 11.2088C16.7012 10.4244 17.7897 9.9838 18.9247 9.9838H31.7637C32.8988 9.9838 33.9873 10.4244 34.7899 11.2088C35.5925 11.9932 36.0434 13.057 36.0434 14.1662V16.2574C36.0434 17.3666 35.5925 18.4304 34.7899 19.2148C33.9873 19.9992 32.8988 20.4398 31.7637 20.4398H18.9247C17.7897 20.4398 16.7012 19.9992 15.8986 19.2148C15.096 18.4304 14.6451 17.3666 14.6451 16.2574V14.1662ZM18.9247 13.1206C18.641 13.1206 18.3688 13.2308 18.1682 13.4269C17.9676 13.6229 17.8548 13.8889 17.8548 14.1662V16.2574C17.8548 16.5347 17.9676 16.8007 18.1682 16.9968C18.3688 17.1928 18.641 17.303 18.9247 17.303H31.7637C32.0475 17.303 32.3196 17.1928 32.5203 16.9968C32.7209 16.8007 32.8336 16.5347 32.8336 16.2574V14.1662C32.8336 13.8889 32.7209 13.6229 32.5203 13.4269C32.3196 13.2308 32.0475 13.1206 31.7637 13.1206H18.9247ZM17.3199 29.8502C18.0293 29.8502 18.7096 29.5748 19.2112 29.0846C19.7129 28.5944 19.9947 27.9295 19.9947 27.2362C19.9947 26.5429 19.7129 25.878 19.2112 25.3878C18.7096 24.8976 18.0293 24.6222 17.3199 24.6222C16.6105 24.6222 15.9301 24.8976 15.4285 25.3878C14.9269 25.878 14.6451 26.5429 14.6451 27.2362C14.6451 27.9295 14.9269 28.5944 15.4285 29.0846C15.9301 29.5748 16.6105 29.8502 17.3199 29.8502ZM19.9947 35.601C19.9947 36.2943 19.7129 36.9592 19.2112 37.4494C18.7096 37.9396 18.0293 38.215 17.3199 38.215C16.6105 38.215 15.9301 37.9396 15.4285 37.4494C14.9269 36.9592 14.6451 36.2943 14.6451 35.601C14.6451 34.9077 14.9269 34.2428 15.4285 33.7526C15.9301 33.2624 16.6105 32.987 17.3199 32.987C18.0293 32.987 18.7096 33.2624 19.2112 33.7526C19.7129 34.2428 19.9947 34.9077 19.9947 35.601ZM33.3686 29.8502C34.078 29.8502 34.7584 29.5748 35.26 29.0846C35.7616 28.5944 36.0434 27.9295 36.0434 27.2362C36.0434 26.5429 35.7616 25.878 35.26 25.3878C34.7584 24.8976 34.078 24.6222 33.3686 24.6222C32.6592 24.6222 31.9789 24.8976 31.4772 25.3878C30.9756 25.878 30.6938 26.5429 30.6938 27.2362C30.6938 27.9295 30.9756 28.5944 31.4772 29.0846C31.9789 29.5748 32.6592 29.8502 33.3686 29.8502ZM36.0434 35.601C36.0434 36.2943 35.7616 36.9592 35.26 37.4494C34.7584 37.9396 34.078 38.215 33.3686 38.215C32.6592 38.215 31.9789 37.9396 31.4772 37.4494C30.9756 36.9592 30.6938 36.2943 30.6938 35.601C30.6938 34.9077 30.9756 34.2428 31.4772 33.7526C31.9789 33.2624 32.6592 32.987 33.3686 32.987C34.078 32.987 34.7584 33.2624 35.26 33.7526C35.7616 34.2428 36.0434 34.9077 36.0434 35.601ZM25.3442 29.8502C26.0536 29.8502 26.734 29.5748 27.2356 29.0846C27.7372 28.5944 28.019 27.9295 28.019 27.2362C28.019 26.5429 27.7372 25.878 27.2356 25.3878C26.734 24.8976 26.0536 24.6222 25.3442 24.6222C24.6348 24.6222 23.9545 24.8976 23.4529 25.3878C22.9513 25.878 22.6694 26.5429 22.6694 27.2362C22.6694 27.9295 22.9513 28.5944 23.4529 29.0846C23.9545 29.5748 24.6348 29.8502 25.3442 29.8502ZM28.019 35.601C28.019 36.2943 27.7372 36.9592 27.2356 37.4494C26.734 37.9396 26.0536 38.215 25.3442 38.215C24.6348 38.215 23.9545 37.9396 23.4529 37.4494C22.9513 36.9592 22.6694 36.2943 22.6694 35.601C22.6694 34.9077 22.9513 34.2428 23.4529 33.7526C23.9545 33.2624 24.6348 32.987 25.3442 32.987C26.0536 32.987 26.734 33.2624 27.2356 33.7526C27.7372 34.2428 28.019 34.9077 28.019 35.601ZM15.18 3.71021C13.3356 3.71021 11.5667 4.42625 10.2625 5.70082C8.95828 6.9754 8.22559 8.70409 8.22559 10.5066V38.7378C8.22559 39.6303 8.40547 40.5141 8.75496 41.3387C9.10446 42.1632 9.61672 42.9125 10.2625 43.5436C10.9083 44.1747 11.6749 44.6753 12.5187 45.0168C13.3624 45.3584 14.2668 45.5342 15.18 45.5342H35.5084C36.4217 45.5342 37.326 45.3584 38.1698 45.0168C39.0135 44.6753 39.7802 44.1747 40.426 43.5436C41.0718 42.9125 41.584 42.1632 41.9335 41.3387C42.283 40.5141 42.4629 39.6303 42.4629 38.7378V10.5066C42.4629 8.70409 41.7302 6.9754 40.426 5.70082C39.1218 4.42625 37.3529 3.71021 35.5084 3.71021H15.18ZM11.4353 10.5066C11.4353 8.4865 13.113 6.847 15.18 6.847H35.5084C37.5755 6.847 39.2531 8.4865 39.2531 10.5066V38.7378C39.2531 39.7084 38.8586 40.6392 38.1563 41.3255C37.4541 42.0118 36.5016 42.3974 35.5084 42.3974H15.18C14.1869 42.3974 13.2344 42.0118 12.5321 41.3255C11.8299 40.6392 11.4353 39.7084 11.4353 38.7378V10.5066Z" fill="#5C2472"/>
</svg>
