<svg width="51" height="49" viewBox="0 0 51 49" fill="none" xmlns="http://www.w3.org/2000/svg">
<path d="M24.1277 2.14941C24.1277 1.30589 24.8115 0.62207 25.655 0.62207C26.4985 0.62207 27.1824 1.30589 27.1824 2.14941V8.08811C27.1824 8.93164 26.4985 9.61546 25.655 9.61546C24.8115 9.61546 24.1277 8.93164 24.1277 8.08811V2.14941Z" fill="#C69318"/>
<path d="M10.4028 4.20087C11.0939 3.71699 12.0464 3.885 12.5303 4.57613L15.9347 9.43913C16.4183 10.1299 16.2506 11.0819 15.5599 11.5657C14.8691 12.0497 13.9166 11.8819 13.4328 11.1909L10.0277 6.32835C9.54376 5.63728 9.71171 4.68476 10.4028 4.20087Z" fill="#C69318"/>
<path d="M38.7792 4.5762C39.263 3.88502 40.2156 3.71696 40.9067 4.20082C41.598 4.68472 41.766 5.6374 41.282 6.32858L37.8772 11.1909C37.3933 11.8819 36.4408 12.0498 35.7499 11.5658C35.0591 11.082 34.8913 10.1298 35.3749 9.43896L38.7792 4.5762Z" fill="#C69318"/>
<path d="M0.832039 16.2121C1.12037 15.4186 1.99755 15.0094 2.79083 15.2982L8.368 17.3287C9.16137 17.6175 9.5701 18.4951 9.28067 19.2882C8.99154 20.0806 8.1151 20.4888 7.32255 20.2002L1.7454 18.1697C0.952786 17.8812 0.543952 17.0049 0.832039 16.2121Z" fill="#C69318"/>
<path d="M48.5187 15.2982C49.312 15.0094 50.1891 15.4185 50.4775 16.2119C50.7657 17.0048 50.3568 17.8812 49.564 18.1697L43.9843 20.2005C43.1913 20.4891 42.3146 20.0801 42.0262 19.2871C41.7379 18.4944 42.1467 17.6181 42.9392 17.3296L48.5187 15.2982Z" fill="#C69318"/>
<path d="M16.566 16.3975C18.9764 13.987 22.2457 12.6328 25.6546 12.6328C27.3426 12.6328 29.014 12.9653 30.5734 13.6112C32.1328 14.2572 33.5498 15.2039 34.7433 16.3975C35.9369 17.591 36.8836 19.008 37.5296 20.5674C38.1755 22.1268 38.508 23.7982 38.508 25.4862C38.5939 27.3522 38.2355 29.212 37.4624 30.9124C36.6892 32.6129 35.5233 34.1056 34.0607 35.2675C32.7625 36.4758 32.0813 37.157 32.0813 38.3395H29.5106C29.5106 35.9949 30.8828 34.7135 32.2329 33.4526L32.3127 33.3781C33.5163 32.4595 34.4763 31.2597 35.1082 29.8837C35.7402 28.5077 36.0248 26.9978 35.9373 25.4862C35.9373 22.759 34.854 20.1436 32.9256 18.2152C30.9972 16.2868 28.3818 15.2035 25.6546 15.2035C22.9275 15.2035 20.3121 16.2868 18.3837 18.2152C16.4553 20.1436 15.372 22.759 15.372 25.4862C15.2829 26.9966 15.5657 28.5059 16.1953 29.8818C16.825 31.2577 17.7824 32.4581 18.9838 33.3781C20.3719 34.6506 21.7986 35.9745 21.7986 38.3395H19.228C19.228 37.157 18.5339 36.4758 17.2486 35.2804C15.7849 34.1164 14.6185 32.6216 13.8454 30.9189C13.0722 29.2161 12.7144 27.3542 12.8013 25.4862C12.8013 22.0772 14.1555 18.8079 16.566 16.3975Z" fill="#C69318"/>
<path d="M19.2281 40.9102H32.0814V43.4808H19.2281V40.9102Z" fill="#C69318"/>
<path d="M21.7986 46.0515H29.5106V48.6221H21.7986V46.0515Z" fill="#C69318"/>
</svg>
