<svg width="65" height="64" viewBox="0 0 65 64" fill="none" xmlns="http://www.w3.org/2000/svg">
<rect width="64" height="64" transform="translate(0.171387)" fill="white"/>
<path d="M13.6558 23.0625H25.2183" stroke="#414745" stroke-width="3" stroke-linecap="round" stroke-linejoin="round"/>
<path d="M13.6558 29.75H25.2183" stroke="#414745" stroke-width="3" stroke-linecap="round" stroke-linejoin="round"/>
<path d="M13.6558 36.9375H25.2183" stroke="#414745" stroke-width="3" stroke-linecap="round" stroke-linejoin="round"/>
<path d="M5.46826 12.625H27.2422L32.0875 16.75V51.375L27.2422 47.375H5.46826V12.625Z" stroke="#414745" stroke-width="3" stroke-linejoin="round"/>
<path d="M39.4995 23.0625H51.062" stroke="#414745" stroke-width="3" stroke-linecap="round" stroke-linejoin="round"/>
<path d="M39.4995 29.75H51.062" stroke="#414745" stroke-width="3" stroke-linecap="round" stroke-linejoin="round"/>
<path d="M39.4995 36.9375H51.062" stroke="#414745" stroke-width="3" stroke-linecap="round" stroke-linejoin="round"/>
<path d="M58.8745 14.625C58.8745 13.5204 57.9791 12.625 56.8745 12.625H37.8366C37.3615 12.625 36.9019 12.7941 36.5401 13.1021L32.9588 16.1511C32.5125 16.5311 32.2553 17.0877 32.2553 17.6739V51.375L36.5462 47.8327C36.9046 47.5368 37.3548 47.375 37.8195 47.375H56.8745C57.9791 47.375 58.8745 46.4796 58.8745 45.375V14.625Z" stroke="#414745" stroke-width="3" stroke-linejoin="round"/>
</svg>
