<svg width="64" height="64" viewBox="0 0 64 64" fill="none" xmlns="http://www.w3.org/2000/svg">
<rect width="63.0857" height="64" transform="translate(0.0856934)" fill="white"/>
<path fill-rule="evenodd" clip-rule="evenodd" d="M9.74687 21.7476C10.252 21.2347 10.8617 20.8221 11.5409 20.5454C11.1368 19.7625 10.9064 18.9008 10.897 17.9937C10.8805 16.4383 11.5239 15.0397 12.5369 14.0609C14.4526 12.2105 17.3388 12.0561 19.6119 13.7029C19.8607 13.1481 20.2058 12.6299 20.6437 12.1693C21.6111 11.1524 22.9878 10.5023 24.5194 10.5171C26.0822 10.5323 27.5135 11.2309 28.6312 12.3653L37.9753 21.8448C38.2624 20.1564 38.8935 18.3929 40.1308 16.7601C41.8864 14.443 44.7267 13.7772 47.063 14.7961C49.4951 15.8568 50.9264 18.5538 50.1495 21.5302C49.4963 24.0323 49.7026 27.6412 50.4179 30.294C51.7529 33.8088 52.4493 37.3339 51.8864 40.8898C51.3072 44.5477 49.4602 47.8348 46.4132 50.9264C42.7208 54.6723 38.1414 56.6379 33.4449 56.6165C28.7527 56.5952 24.1996 54.593 20.5449 50.8852L10.4044 40.5978C9.28547 39.463 8.60252 38.0171 8.57432 36.4458C8.54651 34.9065 9.15765 33.5056 10.1424 32.5066C10.5634 32.08 11.0565 31.7223 11.6015 31.4547L10.0089 29.8391C8.8904 28.7043 8.20706 27.2584 8.17887 25.6875C8.15143 24.1481 8.76219 22.7473 9.74694 21.7483L9.74687 21.7476ZM15.0028 19.8377C12.5666 17.3519 15.7485 14.2775 18.1847 16.7632L29.7685 28.5149C30.3105 29.0647 31.1896 29.0647 31.7319 28.5149C32.2739 27.9646 32.2739 27.0728 31.7319 26.523L23.259 17.9273C22.7738 17.435 22.5066 16.9123 22.4092 16.4105C22.0164 14.3858 24.3866 12.6974 26.3447 14.6839L38.4076 26.9216C38.6095 27.1264 38.8673 27.367 39.1533 27.6179C39.3849 27.8211 39.6352 28.0312 39.8892 28.2352C40.5782 28.7877 41.3791 28.1788 41.2483 27.298C41.2153 27.0749 41.1833 26.8461 41.1544 26.6116C41.0995 26.1701 41.054 25.7098 41.0277 25.2382C41.0217 25.1288 41.0164 25.0186 41.0127 24.908C40.9405 22.8757 41.2555 20.6569 42.6939 18.7588C44.4307 16.4664 47.7589 17.8745 47.0241 20.6904C46.1743 23.9463 46.4855 28.2566 47.3466 31.3302C49.8581 37.852 49.5021 43.1531 44.1267 48.6067C37.8578 54.9668 29.0473 54.8719 22.8306 48.5656L12.6902 38.2781C10.7319 36.2919 12.3605 33.8509 14.342 34.2348C14.8333 34.3302 15.346 34.599 15.8315 35.0912L20.8175 40.1495C21.4888 40.8309 22.6213 40.6425 23.043 39.7793C23.3076 39.2378 23.2023 38.5855 22.781 38.158L12.2951 27.5202C10.311 25.5073 12.0099 23.0273 14.0267 23.4936C14.4935 23.6016 14.9772 23.8673 15.4365 24.3333L24.6629 33.6935C25.206 34.2444 26.0863 34.2444 26.6291 33.6935C27.171 33.1436 27.1722 32.2529 26.6321 31.7016L26.6291 31.6989L25.7793 30.8315L17.4282 22.3125L15.8041 20.6557L15.0028 19.8377Z" fill="#414745"/>
<path d="M54.8281 16.9663C54.24 16.9663 53.7626 16.4826 53.7626 15.8853C53.7626 14.6913 53.2952 13.5462 52.463 12.7012C51.6308 11.8569 50.5014 11.3828 49.3244 11.3828C48.7338 11.3828 48.2544 10.8965 48.2544 10.2973C48.2544 9.69805 48.7337 9.2124 49.3244 9.2124C51.0704 9.21497 52.7444 9.9194 53.9794 11.1724C55.2139 12.4247 55.9089 14.123 55.9108 15.8943C55.9089 16.183 55.7932 16.4582 55.5896 16.659C55.3866 16.8604 55.1121 16.9708 54.8282 16.9663L54.8281 16.9663Z" fill="#414745"/>
<path d="M60.3145 16.6312C59.7258 16.6312 59.249 16.1475 59.249 15.5508C59.2471 12.9674 58.234 10.4903 56.4335 8.66301C54.6325 6.83652 52.1908 5.80937 49.6441 5.80674C49.0534 5.80674 48.5747 5.32109 48.5747 4.72123C48.5747 4.12202 49.0534 3.63635 49.6441 3.63635C52.7555 3.64084 55.7372 4.89701 57.9373 7.12839C60.1368 9.36038 61.3749 12.386 61.3795 15.5418C61.382 15.8299 61.2707 16.107 61.0709 16.3117C60.871 16.5163 60.5985 16.6312 60.3145 16.6312L60.3145 16.6312Z" fill="#414745"/>
<path d="M15.7441 56.6166C13.9994 56.6115 12.3279 55.9058 11.0948 54.6535C9.86223 53.4011 9.16857 51.7042 9.16663 49.9342C9.16663 49.335 9.64534 48.8494 10.236 48.8494C10.8267 48.8494 11.3054 49.335 11.3054 49.9342C11.3054 51.1288 11.7733 52.274 12.6056 53.1183C13.4378 53.9626 14.5672 54.4374 15.7442 54.4374C16.3348 54.4374 16.8135 54.923 16.8135 55.5222C16.8135 56.1214 16.3348 56.6078 15.7442 56.6078L15.7441 56.6166Z" fill="#414745"/>
<path d="M15.38 62.1728C12.2711 62.158 9.29379 60.8942 7.10064 58.6578C4.90813 56.4213 3.67808 53.3944 3.68067 50.2399C3.68067 49.6407 4.15938 49.155 4.75005 49.155C5.34071 49.155 5.82005 49.6407 5.82005 50.2399C5.815 52.8209 6.8186 55.2979 8.6101 57.1289C10.4022 58.9605 12.8363 59.9966 15.3798 60.0114C15.9711 60.0114 16.4498 60.4971 16.4498 61.0963C16.4498 61.6955 15.9711 62.1818 15.3798 62.1818L15.38 62.1728Z" fill="#414745"/>
</svg>
