<svg width="66" height="65" viewBox="0 0 66 65" fill="none" xmlns="http://www.w3.org/2000/svg">
<rect width="64.9275" height="64" transform="translate(0.703369 0.901123)" fill="white"/>
<path fill-rule="evenodd" clip-rule="evenodd" d="M19.0478 35.1399C19.1731 35.0829 19.5009 35.0011 20.0851 34.9669C20.6327 34.9346 21.2574 34.9555 21.8685 35.0011C22.5999 35.0591 23.3281 35.1498 24.0511 35.2729H24.0569L36.7186 38.0724L36.8053 38.099C37.4566 38.2879 38.1145 38.454 38.7777 38.5969C39.6173 38.778 40.6706 38.9654 41.7896 39.0674C42.3616 39.1196 42.7433 39.7026 42.4102 40.1706C42.1017 40.6115 41.7643 40.9517 41.4867 41.1474C40.6846 41.7138 40.0368 41.9495 39.6434 42.0502C39.5095 42.0864 39.3728 42.1118 39.2347 42.1262H39.1923L28.854 42.0046L28.4876 45.7752L28.5898 45.7942L28.8848 45.8455L29.9568 46.0318C30.8572 46.1876 32.0931 46.3967 33.4389 46.6134C36.0881 47.0391 39.281 47.5104 41.0933 47.6187C42.3466 47.6948 43.8042 47.3147 45.1597 46.868C46.5729 46.4024 48.1713 45.7581 49.7793 45.1081C53.0898 43.7702 56.462 42.4075 59.2943 41.9457C61.743 41.5466 62.6164 42.4284 62.9288 43.0309C63.378 43.8956 63.1351 44.8554 62.7899 45.2013C62.707 45.2868 62.4043 45.5282 61.7719 45.933C61.1819 46.3074 60.4203 46.7578 59.5257 47.2576C57.4478 48.4043 55.3444 49.5057 53.2171 50.5608C48.6051 52.8661 44.0163 54.9814 42.7438 55.4413C41.7142 55.8138 40.4397 55.9031 38.7835 55.8195C37.8041 55.7701 36.8747 55.677 35.8625 55.5744C34.9664 55.4814 34.0692 55.4003 33.1709 55.3311C29.9129 55.0881 27.4356 54.3125 24.7808 53.4813L24.7807 53.4813L24.7703 53.4781L24.5293 53.402C21.776 52.5411 18.8299 51.646 14.9333 51.492C14.056 51.4578 12.4943 51.511 11.1041 51.5756V38.08C13.8131 37.124 17.8273 35.6891 19.0478 35.1399ZM5.8446 36.2347H10.9185V36.2364V54.565H5.8446V36.2347Z" fill="white"/>
<path d="M20.0851 34.9669L20.1728 36.4644L20.1734 36.4643L20.0851 34.9669ZM19.0478 35.1399L19.6634 36.5077L19.6689 36.5052L19.0478 35.1399ZM21.8685 35.0011L21.9871 33.5058L21.9802 33.5053L21.8685 35.0011ZM24.0511 35.2729L23.7993 36.7516L23.9243 36.7729H24.0511V35.2729ZM24.0569 35.2729L24.3807 33.8083L24.2208 33.7729H24.0569V35.2729ZM36.7186 38.0724L37.1584 36.6383L37.101 36.6207L37.0424 36.6078L36.7186 38.0724ZM36.8053 38.099L36.3655 39.5331L36.3764 39.5364L36.3874 39.5396L36.8053 38.099ZM38.7777 38.5969L39.094 37.1306L39.0937 37.1306L38.7777 38.5969ZM41.7896 39.0674L41.9258 37.5736L41.9258 37.5736L41.7896 39.0674ZM42.4102 40.1706L41.1881 39.3008L41.1812 39.3107L42.4102 40.1706ZM41.4867 41.1474L40.6223 39.9215L40.6215 39.9221L41.4867 41.1474ZM39.6434 42.0502L39.2713 40.5971L39.2618 40.5995L39.2524 40.6021L39.6434 42.0502ZM39.2347 42.1262V43.6262H39.3128L39.3906 43.6181L39.2347 42.1262ZM39.1923 42.1262L39.1746 43.6261L39.1834 43.6262H39.1923V42.1262ZM28.854 42.0046L28.8716 40.5047L27.4942 40.4885L27.361 41.8595L28.854 42.0046ZM28.4876 45.7752L26.9946 45.6302L26.8617 46.9985L28.2133 47.2499L28.4876 45.7752ZM28.5898 45.7942L28.3155 47.2689L28.3241 47.2705L28.3328 47.272L28.5898 45.7942ZM28.8848 45.8455L28.6278 47.3234L28.628 47.3234L28.8848 45.8455ZM29.9568 46.0318L29.7 47.5097L29.701 47.5098L29.9568 46.0318ZM33.4389 46.6134L33.2005 48.0943L33.2009 48.0944L33.4389 46.6134ZM41.0933 47.6187L41.1842 46.1215L41.1828 46.1214L41.0933 47.6187ZM45.1597 46.868L44.6903 45.4434L44.6902 45.4434L45.1597 46.868ZM49.7793 45.1081L49.2172 43.7174L49.2172 43.7175L49.7793 45.1081ZM59.2943 41.9457L59.053 40.4652L59.0529 40.4652L59.2943 41.9457ZM62.9288 43.0309L61.5971 43.7213L61.5977 43.7224L62.9288 43.0309ZM62.7899 45.2013L61.7281 44.1418L61.7205 44.1494L61.7129 44.1572L62.7899 45.2013ZM61.7719 45.933L62.5756 47.1995L62.5806 47.1963L61.7719 45.933ZM59.5257 47.2576L60.2505 48.571L60.2573 48.5671L59.5257 47.2576ZM53.2171 50.5608L52.5506 49.217L52.5464 49.219L53.2171 50.5608ZM42.7438 55.4413L42.2339 54.0306L42.2335 54.0308L42.7438 55.4413ZM38.7835 55.8195L38.8592 54.3214L38.8591 54.3214L38.7835 55.8195ZM35.8625 55.5744L35.7078 57.0664L35.7112 57.0667L35.8625 55.5744ZM33.1709 55.3311L33.2862 53.8355L33.2824 53.8352L33.1709 55.3311ZM24.7808 53.4813L25.2289 52.0499L25.211 52.0442L25.1928 52.0391L24.7808 53.4813ZM24.7807 53.4813L24.3322 54.9127L24.3504 54.9184L24.3686 54.9236L24.7807 53.4813ZM24.7703 53.4781L24.3191 54.9086L24.3218 54.9094L24.7703 53.4781ZM24.5293 53.402L24.9805 51.9715L24.977 51.9704L24.5293 53.402ZM14.9333 51.492L14.9925 49.9932L14.9917 49.9932L14.9333 51.492ZM11.1041 51.5756H9.60413V53.147L11.1738 53.074L11.1041 51.5756ZM11.1041 38.08L10.605 36.6655L9.60413 37.0187V38.08H11.1041ZM10.9185 36.2347H12.4185V34.7347H10.9185V36.2347ZM5.8446 36.2347V34.7347H4.3446V36.2347H5.8446ZM10.9185 54.565V56.065H12.4185V54.565H10.9185ZM5.8446 54.565H4.3446V56.065H5.8446V54.565ZM19.9974 33.4695C19.3656 33.5065 18.8111 33.5996 18.4266 33.7745L19.6689 36.5052C19.6089 36.5325 19.5756 36.5407 19.5878 36.5373C19.5944 36.5354 19.6205 36.5285 19.6695 36.5194C19.7676 36.5011 19.9318 36.4785 20.1728 36.4644L19.9974 33.4695ZM21.9802 33.5053C21.336 33.4572 20.6377 33.4317 19.9967 33.4695L20.1734 36.4643C20.6276 36.4375 21.1787 36.4538 21.7569 36.497L21.9802 33.5053ZM24.3029 33.7942C23.5358 33.6636 22.7631 33.5673 21.9871 33.5058L21.75 36.4964C22.4367 36.5509 23.1205 36.636 23.7993 36.7516L24.3029 33.7942ZM24.0569 33.7729H24.0511V36.7729H24.0569V33.7729ZM37.0424 36.6078L24.3807 33.8083L23.7331 36.7375L36.3947 39.537L37.0424 36.6078ZM37.2451 36.6649L37.1584 36.6383L36.2788 39.5065L36.3655 39.5331L37.2451 36.6649ZM39.0937 37.1306C38.4647 36.9951 37.8408 36.8376 37.2233 36.6584L36.3874 39.5396C37.0724 39.7383 37.7643 39.913 38.4618 40.0633L39.0937 37.1306ZM41.9258 37.5736C40.8835 37.4786 39.8926 37.3029 39.094 37.1306L38.4615 40.0632C39.3421 40.2531 40.4576 40.4522 41.6534 40.5612L41.9258 37.5736ZM43.6323 41.0404C44.1754 40.2772 44.1281 39.3686 43.7287 38.6966C43.3525 38.0637 42.6801 37.6424 41.9258 37.5736L41.6534 40.5612C41.471 40.5446 41.2755 40.4409 41.1499 40.2295C41.0838 40.1183 41.0312 39.9648 41.0344 39.7819C41.0377 39.5913 41.1012 39.4229 41.1881 39.3008L43.6323 41.0404ZM42.351 42.3734C42.8017 42.0556 43.2558 41.5785 43.6393 41.0305L41.1812 39.3107C40.9476 39.6445 40.7269 39.8478 40.6223 39.9215L42.351 42.3734ZM40.0156 43.5033C40.5776 43.3594 41.3939 43.0492 42.3519 42.3728L40.6215 39.9221C39.9752 40.3784 39.4959 40.5396 39.2713 40.5971L40.0156 43.5033ZM39.3906 43.6181C39.608 43.5954 39.8234 43.5553 40.0345 43.4983L39.2524 40.6021C39.1956 40.6174 39.1376 40.6282 39.0788 40.6343L39.3906 43.6181ZM39.1923 43.6262H39.2347V40.6262H39.1923V43.6262ZM28.8363 43.5045L39.1746 43.6261L39.2099 40.6263L28.8716 40.5047L28.8363 43.5045ZM29.9806 45.9203L30.3469 42.1496L27.361 41.8595L26.9946 45.6302L29.9806 45.9203ZM28.8641 44.3195L28.7619 44.3005L28.2133 47.2499L28.3155 47.2689L28.8641 44.3195ZM29.1418 44.3677L28.8468 44.3164L28.3328 47.272L28.6278 47.3234L29.1418 44.3677ZM30.2136 44.5539L29.1416 44.3677L28.628 47.3234L29.7 47.5097L30.2136 44.5539ZM33.6773 45.1324C32.3383 44.9169 31.1083 44.7088 30.2126 44.5538L29.701 47.5098C30.6061 47.6665 31.8479 47.8765 33.2005 48.0943L33.6773 45.1324ZM41.1828 46.1214C39.4584 46.0183 36.341 45.5605 33.6769 45.1324L33.2009 48.0944C35.8351 48.5177 39.1035 49.0025 41.0038 49.1161L41.1828 46.1214ZM44.6902 45.4434C43.3472 45.8859 42.1277 46.1787 41.1842 46.1215L41.0025 49.116C42.5655 49.2108 44.2613 48.7434 45.6291 48.2927L44.6902 45.4434ZM49.2172 43.7175C47.5979 44.372 46.0476 44.9962 44.6903 45.4434L45.629 48.2927C47.0982 47.8086 48.7447 47.1443 50.3414 46.4988L49.2172 43.7175ZM59.0529 40.4652C56.0194 40.9598 52.475 42.4008 49.2172 43.7174L50.3414 46.4989C53.7046 45.1396 56.9046 43.8551 59.5357 43.4261L59.0529 40.4652ZM64.2604 42.3405C63.9707 41.7817 63.4372 41.1413 62.5126 40.7379C61.6106 40.3443 60.4702 40.2342 59.053 40.4652L59.5356 43.4261C60.5671 43.258 61.0877 43.3893 61.3127 43.4875C61.5151 43.5758 61.5744 43.6776 61.5971 43.7213L64.2604 42.3405ZM63.8518 46.2607C64.3337 45.7778 64.5726 45.0958 64.6462 44.4922C64.7256 43.8412 64.6417 43.0743 64.2598 42.3393L61.5977 43.7224C61.6651 43.8522 61.6843 43.9975 61.6683 44.129C61.6603 44.1941 61.6457 44.2373 61.6387 44.2539C61.6276 44.2802 61.6434 44.2266 61.7281 44.1418L63.8518 46.2607ZM62.5806 47.1963C63.2072 46.7952 63.6482 46.4709 63.8669 46.2453L61.7129 44.1572C61.7503 44.1187 61.7661 44.1083 61.7331 44.1354C61.7079 44.156 61.664 44.1906 61.5973 44.2398C61.4641 44.3379 61.2583 44.4808 60.9632 44.6696L62.5806 47.1963ZM60.2573 48.5671C61.1682 48.0582 61.9553 47.5932 62.5756 47.1995L60.9682 44.6665C60.4086 45.0216 59.6724 45.4574 58.7941 45.9482L60.2573 48.5671ZM53.8836 51.9046C56.0305 50.8397 58.1533 49.7282 60.2504 48.5709L58.801 45.9443C56.7422 47.0804 54.6582 48.1716 52.5506 49.217L53.8836 51.9046ZM43.2536 56.852C44.6227 56.3572 49.2902 54.2006 53.8877 51.9025L52.5464 49.219C47.9201 51.5316 43.4099 53.6056 42.2339 54.0306L43.2536 56.852ZM38.7079 57.3176C40.4248 57.4043 41.94 57.3273 43.2541 56.8518L42.2335 54.0308C41.4883 54.3004 40.4546 54.402 38.8592 54.3214L38.7079 57.3176ZM35.7112 57.0667C36.7193 57.1689 37.685 57.266 38.7079 57.3176L38.8591 54.3214C37.9231 54.2742 37.0301 54.185 36.0138 54.082L35.7112 57.0667ZM33.0556 56.8266C33.9407 56.8949 34.8248 56.9748 35.7078 57.0664L36.0172 54.0824C35.108 53.9881 34.1976 53.9058 33.2862 53.8355L33.0556 56.8266ZM24.3326 54.9128C26.9851 55.7433 29.6107 56.5698 33.0594 56.8269L33.2824 53.8352C30.2151 53.6065 27.8861 52.8818 25.2289 52.0499L24.3326 54.9128ZM24.3686 54.9236L24.3687 54.9236L25.1928 52.0391L25.1928 52.0391L24.3686 54.9236ZM24.3218 54.9094L24.3322 54.9127L25.2292 52.05L25.2188 52.0467L24.3218 54.9094ZM24.0781 54.8326L24.3191 54.9086L25.2215 52.0475L24.9805 51.9715L24.0781 54.8326ZM14.8741 52.9908C18.5586 53.1364 21.3432 53.9774 24.0816 54.8337L24.977 51.9704C22.2088 51.1048 19.1012 50.1555 14.9925 49.9932L14.8741 52.9908ZM11.1738 53.074C12.5755 53.0089 14.0726 52.9596 14.8748 52.9909L14.9917 49.9932C14.0394 49.956 12.4131 50.0132 11.0345 50.0773L11.1738 53.074ZM9.60413 38.08V51.5756H12.6041V38.08H9.60413ZM18.4322 33.772C17.2852 34.2882 13.3524 35.6959 10.605 36.6655L11.6033 39.4945C14.2737 38.5521 18.3695 37.09 19.6634 36.5077L18.4322 33.772ZM10.9185 34.7347H5.8446V37.7347H10.9185V34.7347ZM12.4185 36.2364V36.2347H9.41853V36.2364H12.4185ZM12.4185 54.565V36.2364H9.41853V54.565H12.4185ZM5.8446 56.065H10.9185V53.065H5.8446V56.065ZM4.3446 36.2347V54.565H7.3446V36.2347H4.3446ZM29.963 46.046L30.3062 44.1759L27.3555 43.6344L27.0123 45.5045L29.963 46.046Z" fill="#414745"/>
<path d="M12.279 5.82161C12.6251 4.92161 13.9352 4.92161 14.2825 5.82161L16.5218 11.9361C16.6787 12.3413 17.0779 12.6111 17.5236 12.6111H23.0267C24.0436 12.6111 24.4872 13.8587 23.6877 14.4697L19.7716 17.9428C19.5961 18.0758 19.4679 18.2601 19.4054 18.4693C19.3428 18.6785 19.349 18.9018 19.4232 19.1073L20.8534 25.0821C21.2017 26.0418 20.0745 26.8661 19.222 26.2753L13.9028 22.9483C13.7206 22.8221 13.5034 22.7544 13.2807 22.7544C13.0581 22.7544 12.8408 22.8221 12.6587 22.9483L7.33943 26.2753C6.48805 26.8661 5.35973 26.0407 5.70807 25.0821L7.13822 19.1073C7.21241 18.9018 7.21866 18.6785 7.15608 18.4693C7.0935 18.2601 6.9653 18.0758 6.78988 17.9428L2.87373 14.4697C2.0732 13.8587 2.5189 12.6111 3.53364 12.6111H9.03679C9.25347 12.6118 9.46526 12.5476 9.64413 12.4271C9.82301 12.3066 9.96055 12.1353 10.0385 11.9361L12.2779 5.82161H12.279Z" stroke="#414745" stroke-width="3"/>
<path d="M55.8109 14.2659H56.1099C57.2144 14.2659 58.1099 15.1613 58.1099 16.2659V29.6511C58.1099 30.7557 57.2144 31.6511 56.1099 31.6511H35.7108C34.6062 31.6511 33.7108 30.7557 33.7108 29.6511V27.6219" stroke="#414745" stroke-width="3" stroke-linecap="round"/>
<rect x="28.5625" y="7.849" width="24.996" height="17.6837" rx="2" stroke="#414745" stroke-width="3" stroke-linejoin="round"/>
<circle r="4.39187" transform="matrix(1 0 0 -1 40.9906 16.6201)" stroke="#414745" stroke-width="3"/>
</svg>
