<svg width="66" height="64" viewBox="0 0 66 64" fill="none" xmlns="http://www.w3.org/2000/svg">
<rect width="64.9275" height="64" transform="translate(0.709961)" fill="white"/>
<path d="M31.3051 43.6103C32.068 43.7416 33.0629 43.9092 34.1378 44.0822L31.3051 43.6103ZM31.3051 43.6103L31.333 43.4583L31.1991 43.4337L31.2377 43.0365L38.9291 43.127L38.9467 43.1271H38.9839C39.036 43.1271 39.088 43.1244 39.1398 43.119C39.337 43.0984 39.5322 43.0623 39.7237 43.0112C40.2369 42.8787 40.9697 42.5973 41.8237 41.9944C41.824 41.9942 41.8243 41.994 41.8246 41.9938L40.9594 40.7685M31.3051 43.6103L42.9986 40.7715C42.9974 40.7731 42.9963 40.7747 42.9952 40.7763C42.994 40.778 42.9928 40.7797 42.9916 40.7814L42.2168 40.23L42.209 40.5057C41.9092 40.4972 41.6115 40.4805 41.3188 40.4573C41.193 40.5851 41.0707 40.69 40.9594 40.7685M40.9594 40.7685C40.2558 41.2653 39.6875 41.4721 39.3425 41.5604L40.9594 40.7685ZM36.8529 38.0944C37.4242 38.2602 38.0013 38.4059 38.5831 38.5312C39.1742 38.6587 39.8861 38.7898 40.6517 38.8828C40.7293 38.754 40.7948 38.6187 40.8475 38.4785L42.2515 39.0063L43.6556 39.5342C43.8261 39.0805 43.767 38.5724 43.4968 38.1701C43.2265 37.7677 42.7786 37.5207 42.2941 37.507C41.0682 37.4722 39.8387 37.2675 38.8993 37.0649L38.899 37.0649C38.3551 36.9477 37.8157 36.8116 37.2816 36.6569M36.8529 38.0944L37.2927 36.6603L37.2816 36.6569M36.8529 38.0944L36.7768 38.0711L22.0982 33.8495C22.6717 33.8157 23.2931 33.8387 23.8619 33.8811L23.8689 33.8816L23.8689 33.8817C24.5394 33.9348 25.2072 34.0173 25.8704 34.1288C25.9118 34.1344 25.9529 34.1417 25.9938 34.1507L37.1006 36.6065C37.1396 36.6151 37.1783 36.6253 37.2166 36.637L37.2816 36.6569M36.8529 38.0944L37.2708 36.6538C37.2744 36.6549 37.278 36.6559 37.2816 36.6569M40.7038 44.9478L40.7052 44.9479C41.4948 44.9958 42.5353 44.7497 43.7119 44.362L43.7119 44.362C44.8957 43.9719 46.2498 43.4269 47.6715 42.8522L47.6716 42.8521L47.7803 42.8082C50.6023 41.6676 53.6873 40.4206 56.3389 39.9883L56.339 39.9883C57.6058 39.7818 58.6443 39.877 59.477 40.2404C60.3318 40.6134 60.8288 41.2076 61.0995 41.7291C61.0997 41.7295 61.0999 41.7299 61.1001 41.7303L59.7684 42.4207L40.7038 44.9478ZM40.7038 44.9478C39.202 44.8581 36.477 44.4581 34.1383 44.0823L40.7038 44.9478ZM59.5623 46.2297L59.5573 46.2329C59.0094 46.5806 58.3159 46.9903 57.5149 47.4379L57.508 47.4417C55.6667 48.4578 53.8028 49.4337 51.9179 50.3687C47.8873 52.3833 43.7846 54.2795 42.572 54.7178M59.5623 46.2297L42.572 54.7178M59.5623 46.2297C60.1022 45.8842 60.5017 45.5935 60.7132 45.3793L59.5623 46.2297ZM42.572 54.7178C41.3845 55.1474 40.0259 55.2134 38.5126 55.137M42.572 54.7178L38.5126 55.137M38.5126 55.137C37.6099 55.0915 36.7584 55.0058 35.8745 54.9162M38.5126 55.137L35.8745 54.9162M35.8745 54.9162L35.8711 54.9158C35.099 54.8358 34.3259 54.7659 33.552 54.7062C30.5223 54.4801 28.2107 53.7563 25.8985 53.0324L25.8476 53.0165L25.8445 53.0155L25.6366 52.9499C25.6361 52.9497 25.6355 52.9496 25.6349 52.9494C23.2353 52.199 20.8131 51.4684 17.6082 51.3417L35.8745 54.9162ZM13.272 51.0012C12.9755 50.7181 12.8077 50.3261 12.8077 49.9162V38.0777C12.8077 37.4417 13.2088 36.8749 13.8086 36.6632C16.2234 35.8111 19.6632 34.5796 20.6603 34.1308L21.2759 35.4987L20.6548 34.1333C21.0237 33.9655 21.5377 33.8824 22.0975 33.8496L13.272 51.0012ZM13.272 51.0012C13.5685 51.2842 13.9679 51.4336 14.3774 51.4145M13.272 51.0012L14.3774 51.4145M14.3774 51.4145C15.6079 51.3573 16.9127 51.3146 17.6075 51.3416L14.3774 51.4145ZM29.5566 44.828L29.8576 43.1876M12.4251 35.3336C12.4251 34.5052 11.7535 33.8336 10.9251 33.8336H5.8512C5.02277 33.8336 4.3512 34.5052 4.3512 35.3336V53.6639C4.3512 54.4923 5.02277 55.1639 5.8512 55.1639H10.9251C11.7535 55.1639 12.4251 54.4923 12.4251 53.6639V35.3353V35.3336Z" stroke="#414745" stroke-width="3" stroke-linejoin="round"/>
<path d="M12.2856 4.92048C12.6317 4.02048 13.9418 4.02048 14.2891 4.92048L16.5284 11.035C16.6853 11.4402 17.0845 11.71 17.5302 11.71H23.0333C24.0502 11.71 24.4937 12.9576 23.6943 13.5686L19.7782 17.0417C19.6027 17.1746 19.4745 17.3589 19.4119 17.5681C19.3494 17.7773 19.3556 18.0007 19.4298 18.2062L20.86 24.1809C21.2083 25.1407 20.0811 25.965 19.2286 25.3742L13.9093 22.0472C13.7272 21.921 13.51 21.8533 13.2873 21.8533C13.0647 21.8533 12.8474 21.921 12.6653 22.0472L7.34603 25.3742C6.49464 25.965 5.36632 25.1396 5.71466 24.1809L7.14481 18.2062C7.219 18.0007 7.22525 17.7773 7.16267 17.5681C7.10009 17.3589 6.97189 17.1746 6.79647 17.0417L2.88033 13.5686C2.07979 12.9576 2.52549 11.71 3.54023 11.71H9.04338C9.26006 11.7107 9.47185 11.6465 9.65073 11.526C9.8296 11.4054 9.96714 11.2342 10.0451 11.035L12.2845 4.92048H12.2856Z" stroke="#414745" stroke-width="3"/>
<path d="M55.8175 13.3647H56.1164C57.221 13.3647 58.1164 14.2602 58.1164 15.3647V28.75C58.1164 29.8546 57.221 30.75 56.1164 30.75H35.7174C34.6128 30.75 33.7174 29.8546 33.7174 28.75V26.7208" stroke="#414745" stroke-width="3" stroke-linecap="round"/>
<rect x="28.5691" y="6.94788" width="24.996" height="17.6837" rx="2" stroke="#414745" stroke-width="3" stroke-linejoin="round"/>
<circle r="4.39187" transform="matrix(1 0 0 -1 40.9972 15.719)" stroke="#414745" stroke-width="3"/>
</svg>
