<svg width="64" height="65" viewBox="0 0 64 65" fill="none" xmlns="http://www.w3.org/2000/svg">
<rect width="64" height="64" transform="translate(0 0.0809326)" fill="white"/>
<g clip-path="url(#clip0_585_3315)">
<path d="M20.9375 25.6278C20.9375 26.3613 20.6461 27.0647 20.1275 27.5834C19.6088 28.1021 18.9054 28.3934 18.1719 28.3934C17.4384 28.3934 16.7349 28.1021 16.2163 27.5834C15.6976 27.0647 15.4062 26.3613 15.4062 25.6278C15.4062 24.8943 15.6976 24.1909 16.2163 23.6722C16.7349 23.1536 17.4384 22.8622 18.1719 22.8622C18.9054 22.8622 19.6088 23.1536 20.1275 23.6722C20.6461 24.1909 20.9375 24.8943 20.9375 25.6278V25.6278ZM25.1339 20.1113C27.3236 19.4862 29.5901 19.171 31.8672 19.1747C34.3231 19.1747 36.6721 19.5324 38.8477 20.1814C39.3126 20.3096 39.8093 20.2506 40.2312 20.0169C40.6531 19.7832 40.9667 19.3936 41.1046 18.9314C41.2426 18.4693 41.194 17.9715 40.9692 17.5448C40.7445 17.118 40.3615 16.7964 39.9023 16.6487C37.2945 15.8737 34.5878 15.4824 31.8672 15.4872C29.1606 15.4872 26.5536 15.867 24.1161 16.5639C23.6457 16.6989 23.2482 17.0152 23.011 17.4433C22.7738 17.8713 22.7163 18.3761 22.8513 18.8465C22.9863 19.3169 23.3026 19.7144 23.7306 19.9516C24.1587 20.1888 24.6635 20.2463 25.1339 20.1113V20.1113Z" fill="#414745"/>
<path fill-rule="evenodd" clip-rule="evenodd" d="M31.8673 8.21174C20.8896 8.21174 11.3242 14.4952 8.56229 23.4227H6.53416C5.99656 23.4233 5.46559 23.5414 4.97845 23.7688C4.49131 23.9962 4.05978 24.3274 3.7141 24.7391C3.36842 25.1508 3.11694 25.6331 2.97729 26.1523C2.83764 26.6714 2.8132 27.2148 2.90566 27.7444L3.84229 33.1282C4.06549 34.4117 4.73457 35.5752 5.73161 36.4137C6.72865 37.2522 7.98965 37.7119 9.29241 37.7117H10.2622C11.3685 39.6034 12.7992 41.3181 14.4844 42.8079L11.7962 51.9418C11.7154 52.2168 11.6998 52.5069 11.7507 52.789C11.8015 53.0711 11.9175 53.3374 12.0893 53.5669C12.2611 53.7963 12.4841 53.9826 12.7405 54.1108C12.9968 54.239 13.2796 54.3057 13.5662 54.3055H20.9412C21.3217 54.3055 21.6928 54.1879 22.0037 53.9687C22.3147 53.7496 22.5502 53.4396 22.678 53.0812L24.4554 48.0994C26.797 48.7374 29.286 49.084 31.871 49.084C34.478 49.084 36.9892 48.7337 39.3492 48.081L41.3515 53.1402C41.4876 53.484 41.7238 53.7789 42.0296 53.9867C42.3354 54.1945 42.6965 54.3056 43.0662 54.3055H50.4412C50.7289 54.3052 51.0126 54.2376 51.2695 54.1081C51.5263 53.9785 51.7494 53.7907 51.9206 53.5595C52.0919 53.3284 52.2068 53.0604 52.256 52.7769C52.3051 52.4934 52.2873 52.2024 52.2039 51.9271L49.3977 42.6862C53.4244 39.0687 55.9688 34.1422 55.9688 28.6479C55.9688 28.1132 55.943 27.5785 55.895 27.0586C56.8575 26.6529 57.7683 26.0777 58.4947 25.4213C59.6563 26.5497 61.5 26.5497 61.5 23.8836C61.5 24.7059 59.6563 24.7059 59.8001 23.7877C59.955 23.4917 60.0668 23.1751 60.132 22.8474C60.2187 22.4203 60.1959 21.9782 60.0656 21.5624C59.9354 21.1465 59.7019 20.7703 59.3871 20.469C59.055 20.1267 58.6181 19.9053 58.1457 19.8398C57.6734 19.7743 57.1927 19.8686 56.78 20.1076C56.4006 20.3173 56.077 20.6149 55.8364 20.9755C55.5958 21.3361 55.4452 21.7492 55.3972 22.18C55.3087 23.0761 55.6996 23.95 56.5772 24.5916C56.2727 24.8021 55.9535 24.9907 55.6222 25.1558C53.653 15.3323 43.5124 8.21174 31.8673 8.21174V8.21174ZM11.7778 25.6647C13.4556 18.0463 21.6124 11.8992 31.8673 11.8992C43.4682 11.8992 52.2813 19.6946 52.2813 28.6479C52.2813 33.272 49.9803 37.5347 46.1232 40.6249C45.8365 40.8555 45.6254 41.1666 45.5169 41.5181C45.4085 41.8697 45.4077 42.2457 45.5147 42.5977L47.9485 50.618H44.3163L42.1407 45.1347C41.9655 44.6928 41.6264 44.3357 41.1943 44.1378C40.7621 43.9399 40.2702 43.9166 39.8212 44.0727C37.3838 44.9208 34.6956 45.3965 31.8673 45.3965C29.1606 45.4035 26.4719 44.956 23.9134 44.0727C23.4541 43.913 22.9504 43.9413 22.5118 44.1512C22.0733 44.3612 21.7354 44.7358 21.5718 45.1937L19.6359 50.618H16.0258L18.36 42.6899C18.4641 42.3366 18.4601 41.9602 18.3483 41.6092C18.2366 41.2583 18.0223 40.9488 17.7331 40.7207C15.7602 39.1937 14.1443 37.2544 12.9984 35.0383C12.8449 34.7337 12.6099 34.4776 12.3195 34.2986C12.0292 34.1196 11.6948 34.0246 11.3537 34.0242H9.28873C8.85507 34.0238 8.43546 33.8705 8.10365 33.5912C7.77184 33.312 7.54906 32.9248 7.47448 32.4976L6.53785 27.1139H9.97829C10.3985 27.1135 10.8059 26.9697 11.1332 26.7061C11.4604 26.4426 11.6879 26.0751 11.7778 25.6647V25.6647ZM58.3177 22.5045C58.2521 22.7848 58.129 23.0485 57.9564 23.2789C57.9012 23.2501 57.8471 23.2193 57.7941 23.1867C57.2557 22.8548 57.2152 22.5414 57.2336 22.3644C57.2517 22.2321 57.3001 22.1057 57.3749 21.9951C57.4497 21.8845 57.549 21.7925 57.665 21.7264C57.8457 21.6269 57.96 21.649 58.0817 21.7707C58.1842 21.8598 58.2604 21.9753 58.302 22.1047C58.3436 22.234 58.3491 22.3723 58.3177 22.5045V22.5045Z" fill="#414745"/>
</g>
<defs>
<clipPath id="clip0_585_3315">
<rect width="59" height="59" fill="white" transform="translate(2.5 2.58093)"/>
</clipPath>
</defs>
</svg>
