<svg width="65" height="64" viewBox="0 0 65 64" fill="none" xmlns="http://www.w3.org/2000/svg">
<rect width="64" height="64" transform="translate(0.0856934)" fill="white"/>
<path d="M42.7737 54.4774C43.2378 54.5017 43.7192 54.512 44.2076 54.512C54.3622 54.512 59.7928 49.6252 59.7928 42.3902V40.6585C59.7928 38.8214 59.0631 37.0595 57.764 35.7605C56.465 34.4615 54.7032 33.7317 52.8661 33.7317H43.2898M35.5491 33.7317C37.3862 33.7317 39.148 34.4615 40.4471 35.7605C41.7461 37.0595 42.4759 38.8214 42.4759 40.6585V45.8536C42.4759 52.9674 35.2443 57.9754 23.4272 57.9754C11.6101 57.9754 4.37854 52.9674 4.37854 45.8536V40.6585C4.37854 38.8214 5.10832 37.0595 6.40735 35.7605C7.70637 34.4615 9.46823 33.7317 11.3053 33.7317H35.5491ZM23.4272 6.02454C25.0191 6.02454 26.5953 6.33807 28.066 6.94726C29.5367 7.55644 30.873 8.44933 31.9987 9.57495C33.1243 10.7006 34.0172 12.0369 34.6264 13.5076C35.2355 14.9783 35.5491 16.5545 35.5491 18.1464C35.5491 19.7383 35.2355 21.3146 34.6264 22.7853C34.0172 24.2559 33.1243 25.5923 31.9987 26.7179C30.873 27.8435 29.5367 28.7364 28.066 29.3456C26.5953 29.9547 25.0191 30.2683 23.4272 30.2683C20.2123 30.2683 17.129 28.9912 14.8557 26.7179C12.5824 24.4446 11.3053 21.3613 11.3053 18.1464C11.3053 14.9315 12.5824 11.8482 14.8557 9.57495C17.129 7.30166 20.2123 6.02454 23.4272 6.02454ZM47.671 12.9513C49.9673 12.9513 52.1697 13.8636 53.7934 15.4873C55.4172 17.1111 56.3294 19.3134 56.3294 21.6098C56.3294 23.9062 55.4172 26.1085 53.7934 27.7323C52.1697 29.3561 49.9673 30.2683 47.671 30.2683C45.3746 30.2683 43.1723 29.3561 41.5485 27.7323C39.9247 26.1085 39.0125 23.9062 39.0125 21.6098C39.0125 19.3134 39.9247 17.1111 41.5485 15.4873C43.1723 13.8636 45.3746 12.9513 47.671 12.9513Z" stroke="#414745" stroke-width="3" stroke-linecap="round" stroke-linejoin="round"/>
</svg>
