<svg width="64" height="64" viewBox="0 0 64 64" fill="none" xmlns="http://www.w3.org/2000/svg">
<rect width="63.0857" height="64" fill="white"/>
<path d="M43.4817 50.8607L48.7766 45.4841C49.1521 45.1048 49.45 44.654 49.6532 44.1576C49.8565 43.6612 49.9611 43.1289 49.9609 42.5913C49.9609 41.4958 49.5379 40.4659 48.7766 39.6935L43.0737 33.908C42.6998 33.527 42.2555 33.2248 41.7661 33.0186C41.2768 32.8124 40.7521 32.7063 40.2222 32.7064C39.1424 32.7064 38.1272 33.1355 37.3658 33.908L33.1956 38.1386C31.044 37.1483 29.0867 35.7715 27.4181 34.0746C25.7414 32.3819 24.3793 30.3964 23.3972 28.2133L27.5674 23.9827C27.9429 23.6034 28.2408 23.1526 28.4441 22.6562C28.6473 22.1597 28.7519 21.6275 28.7517 21.0899C28.7517 19.9944 28.3288 18.9645 27.5674 18.1921L21.8695 12.4015C21.4949 12.0201 21.0497 11.7176 20.5595 11.5114C20.0693 11.3052 19.5437 11.1993 19.013 11.2C17.9332 11.2 16.918 11.6291 16.1566 12.4015L10.8668 17.768C9.64755 18.9998 8.95583 20.7012 8.95583 22.4479C8.95583 22.8165 8.98569 23.1699 9.04541 23.5182C10.1502 30.3236 13.7182 37.0734 19.0827 42.5207C24.4422 47.9629 31.0906 51.5776 37.8186 52.7135C39.8739 53.0568 41.9888 52.3652 43.4817 50.8607Z" stroke="#414745" stroke-width="3"/>
</svg>
