<svg width="66" height="64" viewBox="0 0 66 64" fill="none" xmlns="http://www.w3.org/2000/svg">
<rect width="64.9275" height="64" transform="translate(0.637451)" fill="white"/>
<path d="M51.6703 30.3914C51.6703 36.1311 49.3903 41.6357 45.3317 45.6943C45.2684 45.7576 45.2047 45.8205 45.1406 45.883C41.1013 49.8234 35.679 52.0329 30.0289 52.0329C24.2892 52.0329 18.7846 49.7528 14.7261 45.6943C10.6675 41.6357 8.38745 36.1311 8.38745 30.3914C8.38745 24.6518 10.6675 19.1472 14.7261 15.0886C18.7846 11.0301 24.2892 8.75 30.0289 8.75C35.7686 8.75 41.2732 11.0301 45.3317 15.0886C49.3903 19.1472 51.6703 24.6518 51.6703 30.3914Z" stroke="#414745" stroke-width="3" stroke-linecap="round" stroke-linejoin="round"/>
<path d="M11.386 39.1934C11.386 38.0228 11.851 36.9002 12.6787 36.0725C13.5064 35.2447 14.6291 34.7797 15.7997 34.7797H31.2476C32.4181 34.7797 33.5408 35.2447 34.3685 36.0725C35.1962 36.9002 35.6612 38.0228 35.6612 39.1934V42.5037C35.6612 44.3618 34.8869 45.9945 33.4544 47.2744M46.6955 43.2968V39.1934C46.6955 38.0228 46.2305 36.9002 45.4027 36.0725C44.575 35.2447 43.4524 34.7797 42.2818 34.7797H36.1799M23.5236 17.125C24.5379 17.125 25.5423 17.3248 26.4794 17.7129C27.4166 18.1011 28.268 18.6701 28.9853 19.3873C29.7025 20.1045 30.2714 20.956 30.6596 21.8931C31.0478 22.8302 31.2476 23.8346 31.2476 24.8489C31.2476 25.8633 31.0478 26.8677 30.6596 27.8048C30.2714 28.7419 29.7025 29.5934 28.9853 30.3106C28.268 31.0278 27.4166 31.5968 26.4794 31.9849C25.5423 32.3731 24.5379 32.5729 23.5236 32.5729C21.4751 32.5729 19.5105 31.7591 18.062 30.3106C16.6134 28.8621 15.7997 26.8975 15.7997 24.8489C15.7997 22.8004 16.6134 20.8358 18.062 19.3873C19.5105 17.9388 21.4751 17.125 23.5236 17.125ZM38.9715 21.5387C40.4347 21.5387 41.838 22.1199 42.8727 23.1546C43.9074 24.1893 44.4886 25.5926 44.4886 27.0558C44.4886 28.519 43.9074 29.9223 42.8727 30.957C41.838 31.9916 40.4347 32.5729 38.9715 32.5729C37.5083 32.5729 36.105 31.9916 35.0703 30.957C34.0357 29.9223 33.4544 28.519 33.4544 27.0558C33.4544 25.5926 34.0357 24.1893 35.0703 23.1546C36.105 22.1199 37.5083 21.5387 38.9715 21.5387Z" stroke="#414745" stroke-width="3" stroke-linecap="round" stroke-linejoin="round"/>
<path d="M46.6375 47.3798L56.7625 57.5048" stroke="#414745" stroke-width="5" stroke-linecap="round" stroke-linejoin="round"/>
</svg>
