<svg width="21" height="21" viewBox="0 0 21 21" fill="none" xmlns="http://www.w3.org/2000/svg">
<path d="M9.34351 17.3829C11.2411 17.3825 13.0839 16.7473 14.5787 15.5784L19.2783 20.278L20.7899 18.7663L16.0904 14.0667C17.2599 12.5718 17.8955 10.7285 17.896 8.83045C17.896 4.11482 14.0591 0.277954 9.34351 0.277954C4.62788 0.277954 0.791016 4.11482 0.791016 8.83045C0.791016 13.5461 4.62788 17.3829 9.34351 17.3829ZM9.34351 2.41608C12.881 2.41608 15.7579 5.29292 15.7579 8.83045C15.7579 12.368 12.881 15.2448 9.34351 15.2448C5.80598 15.2448 2.92914 12.368 2.92914 8.83045C2.92914 5.29292 5.80598 2.41608 9.34351 2.41608Z" fill="white"/>
</svg>
