<svg width="19" height="19" viewBox="0 0 19 19" fill="none" xmlns="http://www.w3.org/2000/svg">
<path d="M15.7911 17.9172L18.091 15.608C18.2541 15.4451 18.3835 15.2515 18.4718 15.0383C18.5601 14.8251 18.6055 14.5965 18.6055 14.3657C18.6055 13.8952 18.4217 13.4529 18.091 13.1211L15.6139 10.6364C15.4515 10.4728 15.2585 10.343 15.0459 10.2544C14.8334 10.1659 14.6055 10.1203 14.3753 10.1204C13.9063 10.1204 13.4653 10.3047 13.1346 10.6364L11.3232 12.4533C10.3887 12.028 9.53849 11.4367 8.8137 10.7079C8.08539 9.981 7.49375 9.12827 7.06718 8.19069L8.87855 6.37375C9.04165 6.21086 9.17106 6.01725 9.25934 5.80405C9.34763 5.59085 9.39305 5.36224 9.39299 5.13138C9.39299 4.66088 9.20926 4.21858 8.87855 3.88684L6.40358 1.39994C6.2409 1.23613 6.04752 1.10622 5.83459 1.01765C5.62166 0.929095 5.39337 0.883642 5.16286 0.883912C4.69381 0.883912 4.25285 1.06821 3.92214 1.39994L1.62442 3.70472C1.09485 4.23375 0.794393 4.96443 0.794393 5.71462C0.794393 5.8729 0.807361 6.02467 0.833299 6.17428C1.31316 9.09699 2.86298 11.9958 5.19312 14.3353C7.5211 16.6726 10.4089 18.225 13.3313 18.7129C14.224 18.8603 15.1427 18.5633 15.7911 17.9172Z" fill="#602956"/>
</svg>
