<svg width="66" height="64" viewBox="0 0 66 64" fill="none" xmlns="http://www.w3.org/2000/svg">
<rect width="64.9275" height="64" transform="translate(0.92749)" fill="white"/>
<path d="M36.0126 10.6206C35.4878 10.5819 34.9617 10.5625 34.4354 10.5625V7.5C35.0373 7.50029 35.639 7.52277 36.2392 7.56737L36.0126 10.6206ZM42.1498 11.9988C41.1681 11.6199 40.1599 11.3139 39.1332 11.0831L39.8039 8.09412C40.9768 8.35749 42.1314 8.70661 43.2522 9.14148L42.1498 11.9988V11.9988ZM46.3453 14.1731C45.9075 13.8811 45.459 13.6053 45.0009 13.3462L46.5107 10.6819C47.5578 11.2752 48.5599 11.9446 49.5089 12.6847L47.6254 15.101C47.2103 14.7771 46.7833 14.4686 46.3453 14.1762V14.1731ZM51.9619 19.6549C51.3561 18.7943 50.6877 17.9795 49.9621 17.2172L52.1793 15.1041C53.0062 15.9769 53.7718 16.9109 54.467 17.8909L51.9619 19.6549V19.6549ZM54.2404 23.7954C54.0393 23.3098 53.8207 22.8318 53.585 22.3621L56.3198 20.984C56.8606 22.0592 57.3212 23.1729 57.6979 24.316L54.7885 25.2745C54.624 24.7749 54.4411 24.2815 54.2404 23.7954V23.7954ZM55.8635 31.4729C55.8387 30.4205 55.7363 29.3713 55.5572 28.3339L58.5737 27.8133C58.7789 28.9954 58.8984 30.1959 58.929 31.3964L55.8665 31.4729H55.8635ZM55.4623 36.183C55.5633 35.6624 55.646 35.1448 55.7103 34.6212L58.7514 34.9978C58.6043 36.1927 58.3688 37.3749 58.047 38.535L55.0948 37.7173C55.2357 37.212 55.3582 36.7006 55.4623 36.183V36.183ZM52.5468 43.4686C53.1103 42.5805 53.6064 41.6495 54.0352 40.6879L56.8343 41.9282C56.3443 43.0307 55.7777 44.0903 55.1346 45.107L52.5468 43.4686ZM49.5946 47.1589C49.9682 46.7852 50.3265 46.3994 50.6665 46.0013L52.9878 48.001C52.5947 48.4568 52.1851 48.8981 51.7598 49.324L49.5946 47.1589V47.1589Z" fill="#3D2E3A" stroke="#3D2E3A" stroke-linejoin="round"/>
<path d="M34.4353 10.5625C30.91 10.5627 27.4392 11.4323 24.3303 13.0943C21.2214 14.7563 18.5703 17.1593 16.6119 20.0905C14.6535 23.0218 13.4482 26.3907 13.1028 29.899C12.7573 33.4073 13.2824 36.9467 14.6315 40.2036C15.9806 43.4605 18.1121 46.3344 20.8371 48.5708C23.5622 50.8072 26.7967 52.3371 30.2542 53.0249C33.7117 53.7127 37.2855 53.5373 40.659 52.5141C44.0325 51.4908 47.1016 49.6515 49.5945 47.1589L51.7596 49.324C48.9107 52.1745 45.4027 54.2783 41.5464 55.4489C37.6902 56.6196 33.6046 56.821 29.6519 56.0354C25.6992 55.2497 22.0012 53.5012 18.8858 50.9448C15.7703 48.3883 13.3335 45.1029 11.7912 41.3797C10.249 37.6564 9.6489 33.6102 10.0442 29.5995C10.4394 25.5889 11.8178 21.7377 14.0573 18.3871C16.2967 15.0365 19.328 12.29 22.8825 10.391C26.4371 8.49192 30.4052 7.49893 34.4353 7.5V10.5625Z" fill="#3D2E3A" stroke="#3D2E3A" stroke-linejoin="round"/>
<path d="M32.9042 16.6874C33.3103 16.6874 33.6997 16.8487 33.9869 17.1359C34.2741 17.423 34.4354 17.8125 34.4354 18.2186V34.174L44.3823 39.858C44.7246 40.0645 44.9726 40.3967 45.0732 40.7837C45.1739 41.1707 45.1192 41.5816 44.9208 41.9288C44.7224 42.2759 44.3961 42.5317 44.0117 42.6415C43.6272 42.7513 43.215 42.7063 42.8633 42.5162L32.1447 36.3913C31.9103 36.2574 31.7155 36.0639 31.58 35.8305C31.4444 35.5971 31.373 35.332 31.3729 35.0621V18.2186C31.3729 17.8125 31.5343 17.423 31.8214 17.1359C32.1086 16.8487 32.498 16.6874 32.9042 16.6874V16.6874Z" fill="#3D2E3A" stroke="#3D2E3A" stroke-linejoin="round"/>
</svg>
