<svg width="66" height="64" viewBox="0 0 66 64" fill="none" xmlns="http://www.w3.org/2000/svg">
<rect width="64.9275" height="64" transform="translate(0.783203)" fill="white"/>
<rect x="11.1962" y="37.2205" width="4.43235" height="4.43235" fill="#414745"/>
<rect x="11.1962" y="29.6456" width="4.43235" height="4.43235" fill="#414745"/>
<rect x="11.1962" y="44.7952" width="4.43235" height="4.43235" fill="#414745"/>
<rect x="19.4155" y="29.6456" width="4.43235" height="4.43235" fill="#414745"/>
<rect x="19.4154" y="37.2205" width="4.43235" height="4.43235" fill="#414745"/>
<rect x="19.4154" y="44.7952" width="4.43235" height="4.43235" fill="#414745"/>
<rect x="27.6353" y="29.6456" width="4.43235" height="4.43235" fill="#414745"/>
<rect x="27.6354" y="37.2205" width="4.43235" height="4.43235" fill="#414745"/>
<rect x="27.6354" y="44.7952" width="4.43235" height="4.43235" fill="#414745"/>
<rect x="35.8549" y="29.6456" width="4.43235" height="4.43235" fill="#414745"/>
<rect x="35.8549" y="37.2205" width="4.43235" height="4.43235" fill="#414745"/>
<rect x="35.8549" y="44.7952" width="4.43235" height="4.43235" fill="#414745"/>
<rect x="44.0743" y="29.6456" width="4.43235" height="4.43235" fill="#414745"/>
<rect x="44.0743" y="37.2205" width="4.43235" height="4.43235" fill="#414745"/>
<rect x="44.0743" y="44.7952" width="4.43235" height="4.43235" fill="#414745"/>
<path d="M13.7112 13.1294C14.0801 13.1294 14.4338 13.2759 14.6946 13.5367C14.9554 13.7975 15.1019 14.1512 15.1019 14.52V15.9107H44.9269V14.52C44.9269 14.1512 45.0734 13.7975 45.3342 13.5367C45.595 13.2759 45.9488 13.1294 46.3176 13.1294C46.6864 13.1294 47.0401 13.2759 47.3009 13.5367C47.5617 13.7975 47.7082 14.1512 47.7082 14.52V15.9107H50.4895C51.9648 15.9107 53.3797 16.4968 54.4229 17.5399C55.4661 18.5831 56.0521 19.998 56.0521 21.4733V52.0676C56.0521 53.5429 55.4661 54.9578 54.4229 56.001C53.3797 57.0442 51.9648 57.6302 50.4895 57.6302H9.53929C8.064 57.6302 6.64913 57.0442 5.60593 56.001C4.56274 54.9578 3.97668 53.5429 3.97668 52.0676V21.4733C3.97668 19.998 4.56274 18.5831 5.60593 17.5399C6.64913 16.4968 8.064 15.9107 9.53929 15.9107H12.3206V14.52C12.3206 14.1512 12.4671 13.7975 12.7279 13.5367C12.9887 13.2759 13.3424 13.1294 13.7112 13.1294ZM6.75799 24.2546V52.0676C6.75799 52.8053 7.05102 53.5127 7.57261 54.0343C8.09421 54.5559 8.80164 54.8489 9.53929 54.8489H50.4895C51.2272 54.8489 51.9346 54.5559 52.4562 54.0343C52.9778 53.5127 53.2708 52.8053 53.2708 52.0676V24.2546H26.2271H6.75799Z" fill="#414745"/>
<circle cx="46.4995" cy="17.8958" r="16.6905" fill="white"/>
<path d="M47.5738 3.32941C47.2162 3.30301 46.8579 3.28979 46.4994 3.28977V1.20361C46.9094 1.20381 47.3193 1.21912 47.7281 1.24951L47.5738 3.32941ZM51.7544 4.26818C51.0857 4.01013 50.3989 3.80165 49.6996 3.64442L50.1564 1.60833C50.9554 1.78774 51.7419 2.02556 52.5054 2.32179L51.7544 4.26818V4.26818ZM54.6125 5.74935C54.3142 5.55043 54.0087 5.36255 53.6966 5.18609L54.7251 3.37113C55.4384 3.77529 56.121 4.2313 56.7675 4.73548L55.4845 6.38146C55.2016 6.1608 54.9108 5.95066 54.6125 5.75144V5.74935ZM58.4385 9.48357C58.0258 8.89731 57.5705 8.34228 57.0762 7.82299L58.5866 6.38354C59.1498 6.9781 59.6714 7.61438 60.1449 8.28195L58.4385 9.48357V9.48357ZM59.9906 12.3041C59.8536 11.9733 59.7047 11.6477 59.5441 11.3277L61.4071 10.389C61.7755 11.1214 62.0893 11.88 62.3458 12.6587L60.364 13.3117C60.2519 12.9713 60.1273 12.6352 59.9906 12.3041V12.3041ZM61.0962 17.5341C61.0794 16.8171 61.0096 16.1024 60.8876 15.3957L62.9425 15.0411C63.0823 15.8464 63.1636 16.6641 63.1845 17.4819L61.0983 17.5341H61.0962ZM60.8229 20.7426C60.8918 20.3879 60.9481 20.0354 60.9919 19.6786L63.0635 19.9352C62.9633 20.7491 62.8029 21.5545 62.5837 22.3447L60.5726 21.7877C60.6686 21.4435 60.752 21.0951 60.8229 20.7426V20.7426ZM58.8369 25.7055C59.2208 25.1005 59.5587 24.4664 59.8508 23.8113L61.7575 24.6562C61.4238 25.4072 61.0378 26.129 60.5997 26.8216L58.8369 25.7055ZM56.8259 28.2194C57.0804 27.9648 57.3245 27.702 57.556 27.4308L59.1373 28.793C58.8695 29.1035 58.5905 29.4041 58.3008 29.6943L56.8259 28.2194V28.2194Z" fill="#414745"/>
<path d="M46.4992 3.28977C44.0978 3.28994 41.7335 3.88234 39.6157 5.01448C37.4979 6.14662 35.692 7.78356 34.3579 9.78033C33.0239 11.7771 32.2028 14.072 31.9675 16.4619C31.7322 18.8518 32.0898 21.2628 33.0088 23.4814C33.9279 25.7 35.3798 27.6577 37.2361 29.1812C39.0924 30.7046 41.2958 31.7468 43.6511 32.2153C46.0063 32.6839 48.4408 32.5643 50.7389 31.8673C53.0369 31.1703 55.1276 29.9173 56.8257 28.2194L58.3006 29.6943C56.36 31.636 53.9703 33.0691 51.3434 33.8666C48.7165 34.664 45.9334 34.8012 43.2408 34.266C40.5482 33.7308 38.0291 32.5398 35.9069 30.7983C33.7846 29.0569 32.1246 26.8189 31.0741 24.2825C30.0235 21.7462 29.6147 18.9899 29.8839 16.2579C30.1532 13.5258 31.0922 10.9024 32.6177 8.61994C34.1432 6.33751 36.2081 4.46659 38.6295 3.17295C41.0509 1.87931 43.754 1.20289 46.4992 1.20361V3.28977Z" fill="#414745"/>
<path d="M45.4564 7.46191C45.7331 7.46191 45.9984 7.57181 46.194 7.76742C46.3896 7.96304 46.4995 8.22835 46.4995 8.50499V19.3739L53.2753 23.2458C53.5085 23.3865 53.6775 23.6128 53.746 23.8764C53.8146 24.14 53.7773 24.42 53.6422 24.6564C53.507 24.8929 53.2848 25.0672 53.0229 25.1419C52.761 25.2167 52.4802 25.1861 52.2406 25.0566L44.939 20.8843C44.7794 20.7931 44.6467 20.6613 44.5544 20.5023C44.462 20.3433 44.4134 20.1627 44.4133 19.9789V8.50499C44.4133 8.22835 44.5232 7.96304 44.7188 7.76742C44.9145 7.57181 45.1798 7.46191 45.4564 7.46191V7.46191Z" fill="#414745"/>
</svg>
