<svg width="513" height="509" viewBox="0 0 513 509" fill="none" xmlns="http://www.w3.org/2000/svg">
<rect width="512" height="508.8" transform="translate(0.919922)" fill="#E40037"/>
<path d="M178.677 225.857C169.439 228.542 163.078 231.313 155.408 233.132C153.515 233.144 151.663 232.577 150.104 231.508C148.545 230.439 147.355 228.92 146.693 227.156C144.34 220.315 143.818 212.347 141.116 206.285C136.846 202.214 121.856 207.237 121.769 212.953C123.686 219.535 128.566 227.33 131.355 235.124C131.965 237.394 131.965 239.783 131.355 242.052C130.841 244.403 129.787 246.603 128.275 248.481C126.763 250.359 124.835 251.864 122.64 252.878C114.243 256.639 105.483 259.54 96.4955 261.538C84.3817 264.656 72.9651 267.774 61.1128 271.498C60.7034 271.635 60.3362 271.874 60.0463 272.193C59.7564 272.511 59.5535 272.898 59.457 273.317C58.6029 276.034 58.3476 278.903 58.7085 281.727C59.0695 284.552 60.0381 287.266 61.5486 289.685C63.6402 293.409 67.3004 299.125 71.135 297.826C85.6889 291.504 99.1971 284.402 114.012 278.08C121.032 274.115 129.043 272.223 137.107 272.624C139.364 272.81 141.532 273.579 143.397 274.855C145.262 276.131 146.759 277.87 147.739 279.899C150.249 287.107 152.344 294.451 154.014 301.896C156.629 307.352 174.494 301.117 173.797 296.354C173.797 296.354 166.738 281.804 165.082 277.041C164.625 274.798 165.011 272.466 166.167 270.487C167.324 268.508 169.17 267.019 171.357 266.302C201.848 258.225 233.554 255.673 264.955 258.767C271.231 259.063 277.486 259.699 283.692 260.672L302.952 264.31C311.667 265.869 317.681 268.553 326.395 270.372C328.4 270.978 328.836 269.16 329.01 268.38V267.428C334.065 234.345 393.326 256.256 374.502 285.441V286.394C374.317 286.612 374.216 286.888 374.216 287.173C374.216 287.459 374.317 287.735 374.502 287.953C380.428 291.937 386.18 295.401 393.065 299.558H394.982C398.032 297.566 399.078 294.275 401.605 291.937C404.353 289.379 407.43 287.195 410.756 285.441C425.224 278.255 440.093 271.894 455.289 266.388V265.349C415.178 238.761 369.595 221.417 321.873 214.584C274.15 207.751 225.494 211.603 179.462 225.857H178.677Z" fill="white"/>
<path d="M179.104 116.476C169.866 119.161 163.504 121.932 155.835 123.751C153.924 123.844 152.035 123.309 150.46 122.229C148.885 121.149 147.711 119.584 147.12 117.775C144.767 110.933 144.157 102.966 141.456 96.9032C137.185 92.7462 122.108 97.9425 122.108 103.572C124.026 110.154 128.906 117.948 131.695 125.743C132.346 127.977 132.346 130.35 131.695 132.584C131.213 134.948 130.172 137.163 128.656 139.045C127.14 140.928 125.194 142.424 122.98 143.41C114.593 147.196 105.83 150.099 96.8351 152.07C84.7213 155.275 73.2176 158.393 61.4524 162.03C61.0309 162.162 60.6499 162.398 60.3451 162.716C60.0403 163.034 59.8216 163.424 59.7094 163.849C58.8623 166.572 58.6185 169.444 58.9946 172.27C59.3707 175.095 60.3578 177.806 61.8881 180.217C63.8926 183.941 67.5529 189.657 71.3874 188.358C86.0285 182.036 99.5367 175.021 114.352 168.785C121.073 164.66 128.852 162.555 136.749 162.723C139.019 162.903 141.202 163.669 143.082 164.945C144.962 166.221 146.474 167.962 147.469 169.998C150.258 177.272 153.569 191.822 153.744 191.995C156.358 197.451 174.137 191.216 173.526 186.366C173.526 186.366 166.38 171.903 164.812 167.14C164.423 164.866 164.893 162.53 166.131 160.58C167.37 158.63 169.29 157.203 171.522 156.574C202.043 148.498 233.777 145.946 265.208 149.039C271.46 149.322 277.688 149.987 283.858 151.031L303.118 154.495C311.833 156.141 317.846 158.739 326.648 160.644C328.565 161.251 329.001 159.432 329.175 158.652V157.7C334.23 124.617 393.491 146.528 374.667 175.627V176.666C374.483 176.884 374.382 177.16 374.382 177.446C374.382 177.731 374.483 178.007 374.667 178.225C380.506 182.209 386.345 185.586 393.143 189.83H395.147C398.198 187.838 399.243 184.634 401.771 182.295C404.374 179.757 407.305 177.573 410.486 175.8C424.953 168.636 439.822 162.304 455.019 156.834V155.621C415.022 129.22 369.617 111.988 322.093 105.173C274.568 98.3579 226.114 102.13 180.237 116.216L179.104 116.476Z" fill="white"/>
<path d="M179.131 335.758C169.893 338.443 163.618 341.214 155.862 343.033C153.951 343.126 152.062 342.591 150.487 341.511C148.912 340.431 147.738 338.866 147.147 337.057C144.707 330.216 144.184 322.248 141.57 316.186C137.212 312.029 122.223 317.138 122.135 322.854C124.14 329.35 129.02 337.231 131.722 345.025C132.419 347.253 132.419 349.639 131.722 351.867C131.227 354.235 130.181 356.456 128.667 358.351C127.154 360.245 125.216 361.762 123.007 362.779C114.73 366.461 106.122 369.361 97.2978 371.439C85.1841 374.471 73.7675 377.588 61.9152 381.312C61.5011 381.458 61.1274 381.698 60.8245 382.014C60.5216 382.33 60.2981 382.713 60.1722 383.131C59.3479 385.857 59.1159 388.726 59.4915 391.548C59.8671 394.37 60.8418 397.08 62.3509 399.499C64.4425 403.31 68.0156 408.939 71.8502 407.64C86.4913 401.405 99.9995 394.217 114.815 387.981C121.596 383.92 129.383 381.82 137.299 381.919C139.555 382.146 141.715 382.941 143.576 384.23C145.436 385.518 146.935 387.256 147.932 389.28C150.41 396.498 152.504 403.841 154.206 411.278C156.734 416.734 174.686 410.498 173.989 405.648C173.989 405.648 166.93 391.272 165.274 386.422C164.756 384.175 165.115 381.816 166.28 379.823C167.445 377.829 169.328 376.349 171.549 375.683C202.042 367.619 233.74 365.037 265.147 368.062C271.422 368.582 277.436 368.928 283.885 370.054L303.057 373.691C311.772 375.25 317.786 377.935 326.588 379.754C328.592 380.273 328.941 378.541 329.115 377.762V376.809C334.17 343.726 393.431 365.55 374.607 394.823L374.171 395.775C373.987 395.994 373.886 396.27 373.886 396.555C373.886 396.84 373.987 397.116 374.171 397.334C380.01 401.405 385.849 404.696 392.734 408.939H394.651C397.702 406.947 398.747 403.656 401.275 401.318C403.867 398.767 406.799 396.581 409.99 394.823C424.451 387.621 439.32 381.26 454.523 375.77V374.644C414.531 348.301 369.147 331.123 321.653 324.353C274.16 317.582 225.746 321.39 179.915 335.499L179.131 335.758Z" fill="white"/>
</svg>
