<svg width="32" height="32" viewBox="0 0 32 32" fill="none" xmlns="http://www.w3.org/2000/svg">
<rect width="32" height="32" fill="#E40037"/>
<path d="M11.1098 14.2049C10.5324 14.3737 10.1348 14.548 9.65548 14.6624C9.53712 14.6632 9.42138 14.6275 9.32395 14.5603C9.22653 14.4931 9.15212 14.3975 9.1108 14.2866C8.96374 13.8563 8.93106 13.3552 8.7622 12.9739C8.49531 12.7179 7.55845 13.0338 7.55301 13.3933C7.67284 13.8073 7.97786 14.2975 8.15216 14.7877C8.19029 14.9304 8.19029 15.0807 8.15216 15.2234C8.12004 15.3713 8.05416 15.5096 7.95967 15.6277C7.86518 15.7459 7.74463 15.8405 7.60748 15.9043C7.08268 16.1408 6.53517 16.3233 5.97343 16.449C5.21632 16.6451 4.50278 16.8411 3.76201 17.0754C3.73642 17.084 3.71347 17.099 3.69535 17.1191C3.67724 17.1391 3.66455 17.1634 3.65852 17.1897C3.60514 17.3607 3.58919 17.5411 3.61174 17.7187C3.6343 17.8963 3.69484 18.067 3.78925 18.2192C3.91997 18.4534 4.14874 18.8129 4.3884 18.7312C5.29802 18.3336 6.14228 17.8869 7.06824 17.4893C7.50694 17.24 8.00767 17.1209 8.51165 17.1462C8.65269 17.1579 8.78822 17.2063 8.90479 17.2865C9.02136 17.3668 9.11491 17.4761 9.17616 17.6037C9.33301 18.0571 9.46394 18.519 9.56834 18.9872C9.73174 19.3304 10.8483 18.9382 10.8048 18.6386C10.8048 18.6386 10.3636 17.7235 10.2601 17.424C10.2315 17.2829 10.2556 17.1363 10.3279 17.0118C10.4002 16.8873 10.5156 16.7937 10.6523 16.7486C12.5579 16.2406 14.5396 16.0801 16.5022 16.2747C16.8944 16.2933 17.2853 16.3333 17.6732 16.3945L18.877 16.6233C19.4217 16.7213 19.7975 16.8902 20.3422 17.0046C20.4675 17.0427 20.4947 16.9283 20.5056 16.8793V16.8194C20.8215 14.7387 24.5253 16.1167 23.3488 17.9523V18.0122C23.3373 18.026 23.331 18.0433 23.331 18.0612C23.331 18.0792 23.3373 18.0965 23.3488 18.1103C23.7192 18.3608 24.0787 18.5787 24.509 18.8401H24.6288C24.8195 18.7149 24.8848 18.5079 25.0428 18.3608C25.2145 18.2 25.4069 18.0626 25.6147 17.9523C26.519 17.5003 27.4483 17.1002 28.398 16.754V16.6886C25.8911 15.0164 23.0422 13.9256 20.0595 13.4959C17.0768 13.0661 14.0358 13.3084 11.1588 14.2049H11.1098Z" fill="white"/>
<path d="M11.1365 7.32555C10.5591 7.4944 10.1615 7.6687 9.68216 7.78308C9.5627 7.78893 9.44464 7.75529 9.3462 7.68737C9.24775 7.61944 9.17441 7.52101 9.13747 7.40725C8.99041 6.97695 8.95228 6.47584 8.78343 6.09456C8.51653 5.83312 7.57423 6.15993 7.57423 6.51397C7.69406 6.92793 7.99909 7.41814 8.17338 7.90836C8.21409 8.0489 8.21409 8.19811 8.17338 8.33866C8.1433 8.48729 8.07819 8.6266 7.98345 8.74502C7.88872 8.86343 7.7671 8.95754 7.6287 9.01951C7.10454 9.25765 6.55686 9.44021 5.99465 9.5642C5.23754 9.76573 4.51856 9.96182 3.78323 10.1906C3.75689 10.1989 3.73308 10.2137 3.71403 10.2337C3.69498 10.2537 3.68131 10.2782 3.6743 10.305C3.62136 10.4762 3.60612 10.6569 3.62962 10.8346C3.65313 11.0123 3.71482 11.1828 3.81047 11.3344C3.93575 11.5686 4.16451 11.9281 4.40417 11.8464C5.31924 11.4488 6.1635 11.0076 7.08946 10.6154C7.50955 10.356 7.99568 10.2236 8.4893 10.2342C8.63114 10.2455 8.76757 10.2936 8.88508 10.3739C9.00259 10.4541 9.0971 10.5637 9.15926 10.6917C9.33356 11.1492 9.54054 12.0643 9.55143 12.0752C9.71484 12.4183 10.826 12.0262 10.7879 11.7211C10.7879 11.7211 10.3412 10.8115 10.2432 10.5119C10.2189 10.369 10.2482 10.222 10.3257 10.0994C10.4031 9.97674 10.5231 9.88701 10.6626 9.84743C12.5701 9.33953 14.5535 9.17902 16.5179 9.37356C16.9087 9.39133 17.298 9.43317 17.6836 9.49883L18.8873 9.71671C19.432 9.8202 19.8078 9.9836 20.358 10.1034C20.4778 10.1416 20.505 10.0272 20.5159 9.97816V9.91824C20.8318 7.83755 24.5357 9.2156 23.3592 11.0457V11.1111C23.3476 11.1248 23.3413 11.1422 23.3413 11.1601C23.3413 11.178 23.3476 11.1954 23.3592 11.2091C23.7241 11.4597 24.089 11.6721 24.5139 11.939H24.6392C24.8298 11.8137 24.8952 11.6122 25.0531 11.4651C25.2159 11.3055 25.399 11.1682 25.5978 11.0566C26.502 10.6061 27.4313 10.2078 28.3811 9.86377V9.78752C25.8813 8.12708 23.0435 7.04331 20.0733 6.61468C17.103 6.18605 14.0746 6.42328 11.2073 7.30921L11.1365 7.32555Z" fill="white"/>
<path d="M11.138 21.1169C10.5607 21.2857 10.1685 21.46 9.68374 21.5744C9.56428 21.5802 9.44622 21.5466 9.34778 21.4787C9.24934 21.4108 9.17599 21.3123 9.13905 21.1986C8.98654 20.7683 8.95386 20.2672 8.79046 19.8859C8.51812 19.6244 7.58126 19.9458 7.57581 20.3053C7.70109 20.7138 8.00611 21.2095 8.17497 21.6997C8.21855 21.8398 8.21855 21.9898 8.17497 22.13C8.14402 22.2789 8.07864 22.4186 7.98406 22.5378C7.88948 22.6569 7.76832 22.7523 7.63028 22.8163C7.11296 23.0479 6.57498 23.2302 6.02347 23.361C5.26636 23.5516 4.55282 23.7477 3.81205 23.9819C3.78617 23.991 3.76281 24.0062 3.74388 24.026C3.72495 24.0459 3.71098 24.07 3.70312 24.0963C3.6516 24.2677 3.63709 24.4482 3.66057 24.6256C3.68405 24.8031 3.74496 24.9736 3.83929 25.1257C3.97001 25.3654 4.19333 25.7194 4.43299 25.6377C5.34806 25.2456 6.19232 24.7935 7.11828 24.4013C7.54209 24.1459 8.02878 24.0138 8.52356 24.02C8.66455 24.0343 8.79957 24.0843 8.91584 24.1654C9.03212 24.2464 9.12582 24.3557 9.18808 24.483C9.34297 24.937 9.47387 25.3988 9.58025 25.8665C9.73821 26.2097 10.8603 25.8175 10.8167 25.5125C10.8167 25.5125 10.3755 24.6083 10.272 24.3033C10.2396 24.1619 10.262 24.0136 10.3348 23.8882C10.4076 23.7628 10.5254 23.6697 10.6642 23.6279C12.57 23.1206 14.5511 22.9583 16.5141 23.1485C16.9062 23.1812 17.2821 23.203 17.6851 23.2738L18.8834 23.5026C19.4281 23.6006 19.804 23.7695 20.3541 23.8838C20.4794 23.9165 20.5011 23.8076 20.512 23.7586V23.6987C20.828 21.618 24.5318 22.9906 23.3553 24.8316L23.3281 24.8915C23.3165 24.9053 23.3102 24.9226 23.3102 24.9405C23.3102 24.9585 23.3165 24.9758 23.3281 24.9896C23.693 25.2456 24.0579 25.4525 24.4882 25.7194H24.6081C24.7987 25.5942 24.8641 25.3872 25.022 25.2401C25.184 25.0796 25.3673 24.9422 25.5667 24.8316C26.4705 24.3787 27.3999 23.9786 28.35 23.6333V23.5625C25.8506 21.9057 23.014 20.8253 20.0457 20.3995C17.0774 19.9737 14.0515 20.2132 11.1871 21.1005L11.138 21.1169Z" fill="white"/>
</svg>
